<?xml version="1.0" encoding="utf-8"?>
<!-- Generator: Adobe Illustrator 27.0.0, SVG Export Plug-In . SVG Version: 6.00 Build 0)  -->
<svg version="1.1" id="Layer_1" xmlns="http://www.w3.org/2000/svg" xmlns:xlink="http://www.w3.org/1999/xlink" x="0px" y="0px"
	 viewBox="0 0 1080 1080" style="enable-background:new 0 0 1080 1080;" xml:space="preserve">
<style type="text/css">
	.st0{fill:#FFFFFF;}
</style>
<g>
	<path class="st0" d="M385.61,85.67c0,23.97,0,47.71,0,71.73c-23.81,0-47.51,0-71.52,0c0-23.82,0-47.64,0-71.73
		C337.76,85.67,361.45,85.67,385.61,85.67z M377.95,123.49c-2.4-4.56-6.1-6.22-11.44-5.36c-4.02,0.65-6.81,3.34-7.6,7.33
		c-0.79,3.99,1.23,7.87,5.42,10.16c2.13,1.17,4.52,1.92,6.47,3.32c1.16,0.84,2.65,3.02,2.28,3.79c-0.62,1.3-2.73,2.87-3.96,2.68
		c-2.57-0.4-4.98-1.86-8.07-3.15c-0.89,0.53-2.49,1.49-4.13,2.48c2.88,5.29,7.32,6.76,12.46,6.74c5.65-0.03,9.49-2.66,10.65-7.11
		c1.21-4.65-0.96-8.81-6.13-11.53c-2.04-1.07-4.43-1.65-6.16-3.07c-1.11-0.91-1.29-2.94-1.88-4.47c1.63-0.35,3.28-0.99,4.9-0.95
		c0.87,0.02,1.7,1.22,2.64,1.96C374.88,125.4,376.31,124.51,377.95,123.49z M333,145.39c3.28,5.47,7.77,7.24,13.6,5.68
		c4.19-1.12,6.44-4.53,6.52-10.21c0.08-6.21-0.06-12.41,0.05-18.62c0.05-2.58-0.3-3.95-3.49-3.97c-3.29-0.02-3.47,1.52-3.44,4.01
		c0.08,6.45,0.12,12.9-0.1,19.35c-0.05,1.27-1.12,3.18-2.18,3.57c-1.14,0.42-2.87-0.45-4.23-1.02c-0.67-0.28-1.08-1.16-1.67-1.84
		C336.29,143.4,334.75,144.33,333,145.39z"/>
	<path class="st0" d="M733.67,494.64c0-8.29-0.03-16.58,0.01-24.88c0.04-7.19,3.62-10.83,10.83-10.85c16.82-0.05,33.64-0.05,50.45,0
		c7.16,0.02,10.87,3.67,10.9,10.81c0.07,16.95,0.06,33.9-0.01,50.85c-0.03,6.34-3.99,10.3-10.31,10.32
		c-17.18,0.07-34.37,0.07-51.55,0.01c-6.4-0.02-10.24-3.9-10.3-10.29C733.62,511.96,733.67,503.3,733.67,494.64z M755.82,513.39
		c7.47-0.33,14.65-0.24,21.72-1.08c5.67-0.67,8.88-5.5,8.9-11.24c0.01-4.74-3.02-7.28-6.79-9.46c3.68-2.76,5.61-5.93,4.62-10.3
		c-0.85-3.79-3.19-6.78-6.92-7.21c-7.05-0.8-14.2-0.81-21.52-1.16C755.82,486.67,755.82,499.56,755.82,513.39z"/>
	<path class="st0" d="M528.14,458.46c21.18,0,42.07,0,63.41,0c-0.42,5-0.81,9.8-1.24,14.59c-1.41,15.89-2.89,31.78-4.2,47.68
		c-0.17,2.11-1.04,2.93-2.93,3.43c-7.17,1.9-14.3,3.98-21.48,5.84c-1.33,0.35-2.92,0.27-4.26-0.08c-6.95-1.81-13.89-3.66-20.74-5.77
		c-1.28-0.39-3.03-1.94-3.14-3.08c-1.97-20.36-3.72-40.74-5.51-61.12C528.01,459.6,528.09,459.24,528.14,458.46z M542.53,499.46
		c0.28,3.44,0.68,6.56,0.75,9.69c0.05,2.14,1.13,2.78,2.95,3.42c8.31,2.93,16.59,4.42,25.03,0.55c0.65-0.3,1.39-0.45,2.11-0.58
		c2.11-0.36,2.93-1.48,3.09-3.71c0.66-9.35,1.54-18.68,2.34-28.02c0.27-3.12,0.53-6.24,0.81-9.63c-13.38,0-26.32,0-39.76,0
		c0.27,2.67,0.51,5.11,0.79,7.87c10.26,0,20.07,0,30.28,0c-0.22,2.88-0.42,5.34-0.63,8.15c-6.8,0-13.19,0-19.82,0
		c0.22,2.78,0.41,5.16,0.63,7.96c6.28,0,12.29,0,18.28,0c0.14,10.17,0.07,9.97-6.4,12.07c-4.03,1.3-7.53-0.26-10.89-1.57
		c-1.19-0.47-1.29-3.72-1.9-5.7c-0.03-0.11-0.13-0.2-0.32-0.5C547.72,499.46,545.45,499.46,542.53,499.46z"/>
	<path class="st0" d="M318.25,645.36c21.03,0,41.79,0,62.96,0c-0.56,6.55-1.09,12.83-1.64,19.1c-1.19,13.46-2.48,26.92-3.54,40.39
		c-0.28,3.55-1.23,5.57-5.17,6.37c-6.42,1.31-12.66,3.48-19.02,5.12c-1.46,0.38-3.17,0.41-4.62,0.03
		c-7.06-1.85-14.09-3.81-21.07-5.94c-1.08-0.33-2.54-1.65-2.63-2.62c-1.94-20.36-3.71-40.75-5.5-61.12
		C317.98,646.34,318.13,645.98,318.25,645.36z M332.33,687c0.08,1.49,0.08,2.79,0.24,4.08c0.97,7.86,0.95,7.98,8.6,9.87
		c3.48,0.86,7.16,1.81,10.65,1.49c4.05-0.36,8-2,11.94-3.25c0.83-0.26,1.94-1.24,2.02-1.98c0.79-7.33,1.4-14.69,2.07-22.23
		c-1.17-0.11-1.99-0.26-2.81-0.26c-7.67-0.02-15.34-0.07-23.01,0.04c-2.31,0.03-3.41-0.65-3.29-3.09c0.08-1.55-0.14-3.11-0.25-5.24
		c10.26,0,20.16,0,30.21,0c0.2-2.9,0.36-5.24,0.53-7.71c-13.36,0-26.2,0-39.44,0c0.67,8.08,1.32,15.89,2,24.1
		c9.39,0,18.33,0,27.43,0c-0.11,1.41-0.14,2.38-0.26,3.33c-0.86,7.07-0.81,7.4-7.88,8.4c-3.06,0.43-6.55-0.36-9.45-1.55
		c-1.11-0.46-1.12-3.58-1.64-5.49c-0.03-0.1-0.14-0.18-0.4-0.5C337.42,687,335.05,687,332.33,687z"/>
	<path class="st0" d="M339.21,860.2c8.93-9.03,17.53-17.64,26-26.38c1.63-1.68,2.9-1.97,5.02-0.99c4.08,1.89,8.37,3.33,12.44,5.23
		c1.01,0.47,2.16,1.99,2.17,3.04c0.13,17.54,0.13,35.08,0.01,52.61c-0.01,0.97-1.08,2.4-2.01,2.82c-4.43,2-8.93,3.88-13.53,5.44
		c-1.1,0.37-3.06-0.21-3.95-1.06c-7.79-7.52-15.53-15.11-23.05-22.9c-2.38-2.47-3.98-3.12-6.78-0.56
		c-3.77,3.43-8.06,6.28-12.01,9.53c-1.63,1.34-3.09,1.78-4.89,0.53c-1.95-1.35-4.8-1.47-4.71-5.14c0.24-10.1,0.23-20.22,0.01-30.32
		c-0.08-3.57,2.76-3.45,4.58-4.74c1.76-1.23,3.16-1.01,4.86,0.39C328.43,851.88,333.66,855.85,339.21,860.2z M367.04,853.17
		c-6.24,4.92-11.97,9.44-18.09,14.27c6.11,4.81,11.85,9.33,18.09,14.24C367.04,871.93,367.04,862.93,367.04,853.17z M330.46,868.47
		c-3.14-3.71-6.04-7.13-9.03-10.66c0,6.65,0,13.02,0,19.06C324.7,873.83,328.02,870.74,330.46,868.47z"/>
	<path class="st0" d="M574.81,854.95c7.15,3.66,10.17,8.23,9.46,13.8c-0.63,5.01-4.33,9.15-9.4,10.49c-5.69,1.51-9.78-0.6-15.2-8.14
		c0,7.34,0.13,14.23-0.04,21.11c-0.15,6.25-4.43,10.92-10.41,11.81c-5.63,0.84-11.16-2.29-13.25-7.52
		c-2.72-6.79,0.32-12.94,8.66-16.84c-5.42-2.42-9.34-5.77-9.39-12.06c-0.05-6.33,3.38-10.1,9.51-12.51
		c-1.23-0.63-1.92-0.99-2.63-1.34c-5.08-2.51-7.42-7-6.76-12.95c0.55-4.88,4.52-9.75,9.67-10.04c9.59-0.55,19.24-0.64,28.83-0.21
		c5.43,0.24,9.65,5.35,10.37,10.78c0.67,5-2.21,10.12-7.05,12.52C576.57,854.15,575.93,854.44,574.81,854.95z M559.94,855.21
		c0,2.76,0,5.35,0,7.95c-0.5-0.51-1-1.02-1.5-1.54c2.66-2.6,5.31-5.2,7.97-7.8c0.45,0.46,0.89,0.93,1.34,1.39
		C565.22,855.21,562.69,855.21,559.94,855.21z"/>
	<path class="st0" d="M563.06,672.36c2.99,3.37,7.01,5.38,7.04,10.7c0.01,2.71,2.88,4.16,5.8,3.7c2.87-0.45,4.62-2.38,4.69-5.25
		c0.08-3.06-1.7-5.04-4.72-5.62c-5.08-0.98-9.28-5.49-10.63-10.64c-0.44-1.69-2.46-4.15-3.84-4.21c-5.9-0.26-7.61-5.46-12.24-8.87
		c2.64-2.29,4.88-4.33,7.24-6.22c2.31-1.86,4.76-1.85,6.9,0.27c10.37,10.31,20.73,20.63,31.02,31.03c2.68,2.71,2.65,4.91-0.04,7.62
		c-10.12,10.22-20.28,20.39-30.49,30.52c-2.84,2.82-5,2.83-7.89-0.03c-10.3-10.21-20.53-20.49-30.78-30.76
		c-2.01-2.01-2.48-4.59-0.57-6.57c7.15-7.45,14.54-14.67,22.51-22.64c2.37,2.67,4.6,5.06,6.66,7.59c0.54,0.66,0.56,1.75,0.78,2.65
		c0.29,1.16,0.14,2.84,0.87,3.41c3.28,2.54,2.57,5.99,2.59,9.31c0.02,2.93-0.08,5.86,0.03,8.78c0.09,2.26-0.19,4.09-2.08,5.82
		c-2.26,2.06-1.88,5.47,0.26,7.52c2.18,2.09,5.36,2.1,7.58,0.02c2.17-2.03,2.18-4.95,0.41-7.6c-0.87-1.3-1.58-2.97-1.64-4.5
		c-0.19-4.99-0.05-9.99-0.01-14.99C562.48,673.19,562.69,672.99,563.06,672.36z"/>
	<path class="st0" d="M738.77,712.36c3.91-3.58,7.83-7.15,10.85-9.92c-2.77-6.19-5.85-10.91-7.02-16.06
		c-3.32-14.59,6.11-29.33,20.88-32.26c12.38-2.45,25.01-3.67,38.24-5.53c-4.48,4.24-8.45,8-12.52,11.86
		c5.04,5.47,8.02,10.72,8.71,16.96c1.62,14.78-7.59,27.85-22.23,30.55c-12.06,2.23-24.3,3.5-36.46,5.2
		C739.07,712.89,738.92,712.62,738.77,712.36z M770.14,701.48c11.74-0.23,20.74-9.32,20.54-20.74c-0.2-11.65-9.63-20.61-21.37-20.31
		c-10.96,0.28-20.29,9.82-20.12,20.58C749.38,692.47,758.82,701.7,770.14,701.48z"/>
	<path class="st0" d="M538.24,109.45c-0.22-3.66-0.72-7.18-0.59-10.68c0.29-7.85,5.7-11.2,12.74-7.81c3.35,1.62,6.33,4,9.52,6.06
		c2.67-1.85,5.3-4.06,8.26-5.66c7.62-4.14,13.34-0.87,13.7,7.81c0.14,3.38-0.36,6.79-0.57,10.21c3.15,1.58,6.6,2.89,9.58,4.89
		c6.7,4.49,6.66,10.83-0.07,15.27c-2.91,1.92-6.26,3.16-9.07,4.53c0,4.05,0.26,8.05-0.06,12.01c-0.55,6.75-5.42,9.81-11.57,7.07
		c-3.71-1.65-7.02-4.22-10.46-6.35c-2.91,1.93-5.78,4.24-8.99,5.88c-7.09,3.63-12.74,0.23-13.02-7.78c-0.12-3.5,0.37-7.02,0.6-10.64
		c-2.9-1.39-6.11-2.59-8.96-4.36c-7.51-4.67-7.51-11.42-0.02-16.08C532.03,112.1,535.14,110.94,538.24,109.45z M559.43,133.94
		c2.59-0.64,5.86-0.47,7.18-1.99c2.56-2.93,5.47-6.8,5.51-10.31c0.04-3.35-2.99-7.09-5.48-9.96c-1.14-1.32-4.21-1.28-6.41-1.29
		c-2.45-0.01-5.86-0.23-7.14,1.18c-2.59,2.87-5.46,6.75-5.54,10.28c-0.08,3.36,2.81,7.15,5.24,10.05
		C554.04,133.38,557.13,133.3,559.43,133.94z M541.37,135.42c0,3.83-0.37,7.89,0.12,11.85c0.37,2.94,2.88,4.5,5.73,3.15
		c3.6-1.71,6.9-4.05,10.01-5.92C553.88,137.46,549.15,134.44,541.37,135.42z M562.36,144.41c2.8,1.85,5.54,4.07,8.62,5.58
		c4.17,2.04,6.96,0.53,7.42-4.14c0.34-3.51-0.24-7.12-0.4-10.41C570.36,134.39,565.68,137.5,562.36,144.41z M541.12,108.17
		c8.3,1.02,12.98-2.13,16.04-8.98c-2.95-1.88-5.82-4.14-9.05-5.65c-3.67-1.72-6.37-0.26-6.89,3.74
		C540.75,100.91,541.12,104.65,541.12,108.17z M578.25,108.59c0-4.1,0.37-7.96-0.11-11.72c-0.45-3.49-3.01-4.96-6.1-3.53
		c-3.52,1.63-6.69,4.02-10.03,6.09C567.68,107.6,567.68,107.6,578.25,108.59z M538.7,112.7c-3.17,1.77-6.62,3.27-9.57,5.45
		c-2.93,2.16-2.95,5.18-0.05,7.31c3.04,2.23,6.57,3.79,9.69,5.54C543.29,124.74,543.48,119.08,538.7,112.7z M580.9,112.64
		c-4.93,6.39-4.39,12.06-0.2,18.46c3.3-1.89,6.92-3.53,10.01-5.87c2.68-2.04,2.65-4.74-0.04-6.78
		C587.66,116.15,584.13,114.52,580.9,112.64z M563.32,136.88c-2.62,0-4.64,0-7.25,0c1.43,1.69,2.46,2.91,3.74,4.43
		C561.1,139.69,562.08,138.45,563.32,136.88z M548.88,132.55c-1.42-2.46-2.46-4.25-3.96-6.84c-0.77,2.39-1.26,3.9-1.88,5.8
		C545.01,131.86,546.58,132.14,548.88,132.55z M548.84,111.08c-2.29,0.4-3.86,0.68-5.83,1.02c0.63,1.94,1.13,3.45,1.91,5.83
		C546.36,115.41,547.35,113.69,548.84,111.08z M563.44,106.93c-1.44-1.73-2.5-3-3.75-4.5c-1.33,1.65-2.33,2.89-3.63,4.5
		C558.76,106.93,560.74,106.93,563.44,106.93z M576.68,131.5c-0.74-1.92-1.31-3.42-2.12-5.52c-1.36,2.33-2.4,4.13-3.87,6.65
		C573.15,132.17,574.73,131.87,576.68,131.5z M574.56,117.81c0.85-2.29,1.41-3.79,2.09-5.62c-2.03-0.35-3.6-0.63-5.95-1.04
		C572.1,113.57,573.09,115.27,574.56,117.81z"/>
	<path class="st0" d="M768.46,290.2c10.98,0.43,20.68,1.69,29.35,7.16c9.51,5.99,9.83,14.94,0.63,21.33
		c-6.26,4.35-13.47,6.19-20.92,6.91c-12.46,1.2-24.63,0.23-35.54-6.69c-9.15-5.81-9.39-14.97-0.61-20.96
		c2.49-1.7,5.29-3.01,8.1-4.12c2.58-1.02,5.33-1.74,8.07-2.22C761.48,290.92,765.48,290.57,768.46,290.2z M749.07,319.08
		c1.57-2.17-0.22-6.09,4.1-5.75c4.23,0.34,7.98-0.44,10.47-5.81c-0.13,2.69-0.2,4.09-0.28,5.62c2.34,0.44,3.97,0.42,4.16-2.48
		c0.11-1.8,0.94-3.56,1.05-5.36c0.18-3.12,2.2-3.04,4.34-2.78c2.74,0.33,1.86,2.39,1.65,3.95c-0.28,2.15-0.76,4.27-1.15,6.41
		c2.92,1.16,4.39,0.31,4.64-2.61c0.25-2.88,1.72-6.63,0.44-8.39c-1.43-1.98-5.34-2.16-8.37-3.18c0.09-1.05,0.22-2.46,0.34-3.83
		c-2.81-1.08-4.02-0.11-4.44,2.52c-0.45,2.86-1.15,5.68-1.86,9.11c-1.52-6.72-5.69-8.33-15.2-6.35c-1.14,6.2-2.29,12.47-3.48,18.94
		C747,319.08,748.05,319.08,749.07,319.08z M781.94,299.64c-1.24,6.6-2.42,12.88-3.6,19.16c2.68,0.77,4.4,0.68,4.4-2.25
		c0-2.8,1.58-3.41,4.06-3.24c1.55,0.1,3.19-0.08,4.69-0.5c3.16-0.86,5.49-4.91,4.95-8.44c-0.56-3.61-3.13-4.66-6.34-4.72
		C787.55,299.6,785,299.64,781.94,299.64z"/>
	<path class="st0" d="M337.77,336.95c3.28-2.98,6.02-2.37,8.63-0.23c2.08,1.71,3.9,1.57,6.2,0.16c6.85-4.2,13.9-8.08,20.76-12.26
		c0.99-0.6,1.92-2.2,1.94-3.35c0.16-8.65,0.18-17.31-0.01-25.97c-0.03-1.25-1.07-2.96-2.15-3.63c-6.95-4.28-13.98-8.43-21.14-12.34
		c-1.29-0.7-3.63-0.68-4.93,0.03c-7.17,3.88-14.14,8.14-21.27,12.11c-1.97,1.09-2.72,2.36-2.69,4.61
		c0.11,8.17,0.08,16.34-0.03,24.51c-0.03,2.09,0.54,3.42,2.54,4.28c1.67,0.71,3.12,1.91,4.75,2.72c3.51,1.73,5.76,0.43,5.8-3.49
		c0.1-8.53,0.07-17.07,0.02-25.6c-0.01-2.07,0.28-3.88,2.83-3.49c0.92,0.14,2.37,1.42,2.39,2.19c0.16,9.51,0.29,19.02,0.02,28.52
		c-0.17,5.65-4.54,8.75-9.9,6.95c-3.86-1.3-7.55-3.39-10.94-5.69c-1.3-0.88-2.12-3.31-2.16-5.06c-0.21-9.14-0.08-18.29-0.1-27.43
		c-0.01-2.83,1.18-4.77,3.69-6.19c7.95-4.49,15.84-9.1,23.73-13.72c2.57-1.51,5.03-1.47,7.58,0.02c7.56,4.44,15.1,8.93,22.75,13.22
		c2.9,1.63,4.12,3.8,4.09,7.09c-0.1,9.02-0.04,18.04,0,27.06c0.01,2.96-1.16,4.95-3.84,6.45c-7.54,4.22-14.99,8.62-22.39,13.1
		c-2.93,1.78-5.56,2.03-8.47,0.03C343.09,339.91,340.52,338.57,337.77,336.95z"/>
	<path class="st0" d="M342.57,510.8c-1.47,1.25-1.6,5.12-4.89,3.93c-3.02-1.08-2.77-4.26-2.87-6.92c-0.05-1.31,0.14-2.63,0.23-4.07
		c-2.76,0.21-3.12,1.53-2.79,3.92c1.04,7.43-3.78,13.63-10.52,13.91c-5.1,0.21-7.86-3.79-5.03-8.09c1.85-2.82,5.02-4.79,7.66-7.06
		c0.72-0.61,1.68-0.94,3.08-1.7c-2.47-1.83-4.66-3.44-6.83-5.06c-9.25-6.88-9.75-12.85-1.14-20.47
		c7.72-6.83,16.61-11.47,27.23-11.77c1.55-0.04,3.18,0.21,4.68,0.64c6.91,1.99,9.26,7.39,6.14,13.92
		c-3.54,7.41-15.4,12.59-23.11,9.93c-1.56-0.54-2.85-1.84-4.08-3.16c8.91,3.27,16.12,0.47,21.95-6.05c1.58-1.77,2.54-5.31,1.89-7.47
		c-0.47-1.55-4.1-3.03-6.3-3.01c-10.78,0.09-19.82,4.56-26.85,12.66c-3.3,3.81-2.87,7.52,0.73,11.04c2.25,2.21,4.75,4.19,7.29,6.07
		c0.67,0.49,2.12,0.64,2.81,0.25c2.41-1.36,4.62-3.07,6.96-4.56c1.51-0.96,3.08-2.27,4.71-2.41c0.82-0.07,1.6,2.55,2.81,3.2
		c3.23,1.74,1.4,4.05,1.06,6.21c-0.2,1.24-0.51,2.46-0.77,3.69c0.29,0.09,0.57,0.17,0.86,0.26c1.98-4.51,4.13-8.96,5.88-13.56
		c0.95-2.48,2.22-3.24,4.79-2.36c0,2.63,0,5.2,0,7.77c0.34,0.11,0.68,0.22,1.02,0.32c1.28-2.48,2.69-4.9,3.8-7.45
		c1.34-3.08,1.23-3.13,4.6-2.69c0.18,2.99,0.37,5.98,0.58,9.39c7.07-1.84,13.31-2.87,17,4.19c1.44,2.76,0.47,4.58-3.02,6.46
		c2.22-2.16,2.79-4.55,0.61-6.65c-3.52-3.38-7.75-3.5-12.43-2.1c0.63,4.09-0.87,7.01-4.79,8.27c-0.91,0.29-2.42,0.26-2.95-0.29
		c-0.54-0.56-0.37-1.99-0.18-2.98c0.15-0.79,0.62-1.71,1.25-2.18c2.98-2.29,2.02-4.75,0.34-7.54c-1.73,3.04-4.35,5.33-3.48,9.48
		c0.3,1.43-1.42,3.74-2.82,4.95c-1.68,1.44-3.99,2.27-6.4,0.63c1.04-4.26,8.34-6.76,2.89-12.41c-1.85,3.63-3.64,7.45-5.74,11.09
		c-0.71,1.24-2.2,2.03-3.34,3.02C344.22,512.92,343.4,511.86,342.57,510.8z M328.9,505.94c-3.19,3-5.82,5.23-8.1,7.79
		c-0.65,0.73-0.24,2.41-0.31,3.65c1.27,0.01,2.68,0.37,3.79-0.05C327.73,516,329.58,511.87,328.9,505.94z M344.14,498.71
		c-5.09,1.91-7.02,7.5-4.6,12.44C341.23,506.59,342.68,502.65,344.14,498.71z"/>
	<path class="st0" d="M747.67,90.36c4.8,0,8.46-0.16,12.08,0.1c1.05,0.08,2.33,1.15,2.96,2.12c2.45,3.76,4.68,7.65,7.33,12.04
		c2.51-4.15,4.84-7.81,6.95-11.6c1.15-2.07,2.58-2.9,4.97-2.72c3.13,0.23,6.3,0.06,10.45,0.06c-7.49,13.02-14.6,25.38-22.26,38.71
		C762.53,115.96,755.34,103.58,747.67,90.36z"/>
	<path class="st0" d="M559.97,344.04c-20.01,0.11-36.01-15.98-36.07-36.27c-0.06-19.17,16.42-35.51,35.79-35.49
		c19.72,0.02,35.73,16.2,35.83,36.18C595.62,327.91,579.61,343.94,559.97,344.04z M593.5,306.73
		c-0.59-19.86-18.21-33.87-35.82-32.56c-18.9,1.41-33.1,17.61-31.7,36.33c1.41,18.84,17.52,32.93,36.06,31.55
		C580.64,340.66,594.83,324.73,593.5,306.73z"/>
	<path class="st0" d="M368.98,303.81c-2.18,0.63-3.9,0.97-5.23-1.86c-1.5-3.19-9.8-4.2-12.52-1.76c-0.62,0.56-1.24,1.91-0.97,2.5
		c0.42,0.93,1.49,1.97,2.46,2.19c4.13,0.96,8.37,1.49,12.5,2.47c2.99,0.71,4.84,2.79,4.97,6c0.13,3.29-1.05,5.96-4.12,7.53
		c-0.75,0.39-1.57,0.97-2.34,0.95c-4.78-0.13-9.64,0.06-14.3-0.79c-3.95-0.72-5.29-4.19-5.37-8.17c2.57-1.05,4.36-1.2,5.43,2.01
		c0.4,1.21,2.18,2.54,3.5,2.74c2.84,0.43,5.84,0.49,8.66,0.02c1.3-0.21,2.33-2.03,3.48-3.12c-1.14-1.04-2.14-2.65-3.46-3
		c-3.74-0.99-7.69-1.22-11.43-2.2c-4.55-1.19-6.36-5.02-4.82-9.34c1.53-4.29,7.8-6.52,15.01-5.32
		C366.09,295.61,368.85,298.5,368.98,303.81z"/>
	<path class="st0" d="M500.12,385.11c1-4,1.92-8.03,3.06-11.99c0.32-1.11,1.31-2.03,1.99-3.04c0.58,0.97,1.42,1.87,1.71,2.92
		c1.14,4.08,2.1,8.22,3.28,12.92c1.96-5.55,1.63-11.2,3.71-16.04c0.64,0.19,1.28,0.38,1.91,0.57c-1.25,6.01-2.47,12.02-3.82,18.01
		c-0.1,0.45-1.24,1.11-1.61,0.96c-0.75-0.3-1.66-0.99-1.86-1.7c-1.17-4.17-2.16-8.39-3.77-12.63c-1.02,3.97-1.97,7.96-3.13,11.89
		c-0.28,0.95-1.29,1.69-1.96,2.53c-0.69-0.83-1.79-1.58-2-2.52c-1.25-5.42-2.29-10.89-3.4-16.35c0.37-0.23,0.74-0.46,1.11-0.68
		c0.55,0.78,1.4,1.5,1.6,2.36c0.97,4.25,1.78,8.53,2.64,12.8C499.75,385.12,499.94,385.12,500.12,385.11z"/>
	<path class="st0" d="M357.26,748.97c-1.49,3.83-2.98,7.66-4.48,11.49c-0.4,0-0.79,0-1.19,0c-1.52-4-3.04-8.01-4.57-12.01
		c-0.26,0.01-0.52,0.02-0.78,0.03c0,4.5,0,9,0,13.5c-0.4,0.08-0.81,0.16-1.21,0.24c-0.31-0.7-0.88-1.4-0.89-2.11
		c-0.08-4.99-0.1-9.99,0.01-14.99c0.02-0.76,0.81-1.5,1.25-2.25c0.79,0.56,1.98,0.96,2.3,1.72c1.57,3.8,2.92,7.7,4.6,12.28
		c1.56-4.39,2.8-8.16,4.28-11.82c0.37-0.92,1.55-1.5,2.37-2.24c0.47,0.94,1.33,1.87,1.36,2.83c0.14,4.75,0.12,9.5,0.01,14.25
		c-0.02,0.72-0.79,1.43-1.21,2.14c-0.39-0.74-1.1-1.48-1.12-2.23c-0.12-3.57-0.05-7.15-0.05-10.73
		C357.7,749.05,357.48,749.01,357.26,748.97z"/>
	<path class="st0" d="M711.33,556.49c4.12,0.07,8.49-1.46,11.31,2.27c1.06,1.4,0.17,4.26-0.35,6.52c1.79,1.65,3.29,3.73,2.14,6.71
		c-1.12,2.93-3.63,3.69-6.49,3.69c-2.15,0-4.29,0-6.6,0C711.33,569.1,711.33,562.97,711.33,556.49z M713.89,574.73
		c3.01-1.1,5.46-1.75,7.61-2.94c0.52-0.29,0.45-3.24-0.04-3.46c-2.25-1.02-4.73-1.51-7.58-2.32
		C713.89,569.13,713.89,571.24,713.89,574.73z M713.91,565.2c2.52-0.82,4.64-1.31,6.51-2.28c0.43-0.23,0.34-2.93-0.1-3.11
		c-1.93-0.82-4.07-1.13-6.41-1.69C713.91,560.74,713.91,562.48,713.91,565.2z"/>
	<path class="st0" d="M320.53,750.68c0-2.13-0.1-4.06,0.06-5.96c0.05-0.63,0.77-1.21,1.18-1.81c0.46,0.57,1.32,1.12,1.33,1.7
		c0.1,5.23,0.12,10.46-0.01,15.69c-0.02,0.7-1.05,1.37-1.62,2.05c-0.32-0.17-0.64-0.35-0.97-0.52c0-2.75,0-5.5,0-8.46
		c-2.96,0-5.58,0-8.86,0c0,2.24,0.11,4.49-0.07,6.73c-0.05,0.69-0.89,1.32-1.37,1.98c-0.39-0.64-1.1-1.27-1.11-1.92
		c-0.08-5.11-0.08-10.22,0.03-15.33c0.01-0.64,0.75-1.27,1.15-1.91c0.46,0.7,1.23,1.37,1.31,2.11c0.19,1.78,0.06,3.59,0.06,5.66
		C314.64,750.68,317.26,750.68,320.53,750.68z"/>
	<path class="st0" d="M556.1,934.13c-0.49,2.28-0.9,3.94-1.19,5.61c-0.55,3.1-2.62,4.07-5.47,4.27c-0.81,0.06-1.58,0.72-2.37,1.11
		c0.82,0.5,1.59,1.23,2.48,1.43c1.4,0.31,3.01-0.06,4.3,0.45c1.18,0.46,2.68,1.57,2.89,2.63c0.23,1.12-0.58,2.83-1.48,3.74
		c-2.16,2.15-7.19,2.51-9.53,0.65c-0.93-0.73-1.49-2.35-1.58-3.61c-0.11-1.61,0.17-3.36,0.75-4.88c0.77-2.05,0.33-3.69-0.32-5.69
		c-0.84-2.61,0.65-5.07,3.32-5.58C550.73,933.71,553.72,934.13,556.1,934.13z M549.71,947.74c-1.38,1.28-2.4,2.23-3.42,3.17
		c1.25,0.85,2.59,2.48,3.73,2.35c1.56-0.18,2.97-1.7,4.44-2.64C553.1,949.8,551.74,948.97,549.71,947.74z M545.86,938.86
		c1.67,1.47,2.9,3.26,3.67,3.09c1.24-0.29,3.04-1.89,3.02-2.91c-0.01-1.13-1.64-2.76-2.89-3.15
		C548.95,935.65,547.59,937.43,545.86,938.86z"/>
	<path class="st0" d="M330.73,384.3c0-4.67,0-9.34,0-14.01c0.31-0.1,0.62-0.19,0.93-0.29c0.39,0.76,1.09,1.51,1.11,2.28
		c0.11,4.98,0.12,9.97,0.01,14.95c-0.02,0.75-0.79,1.49-1.21,2.24c-0.73-0.51-1.73-0.87-2.15-1.56c-2.58-4.23-5.02-8.53-8.13-12.74
		c0,4.73,0,9.45,0,14.18c-0.32,0.12-0.65,0.24-0.97,0.36c-0.45-0.6-1.28-1.19-1.29-1.79c-0.1-5.81-0.06-11.63-0.06-17.79
		c4.62-0.01,4.49,4.13,6.15,6.32c1.87,2.47,3.18,5.36,4.74,8.07C330.15,384.45,330.44,384.38,330.73,384.3z"/>
	<path class="st0" d="M400.94,934.57c0-1.8-0.09-3.6,0.05-5.39c0.04-0.57,0.67-1.1,1.03-1.65c0.49,0.55,1.4,1.09,1.41,1.64
		c0.1,6.38,0.06,12.77,0.06,18.64c-2.14,0.32-3.74,0.45-5.29,0.82c-2.91,0.69-5.63-0.63-6.66-3.61c-1.13-3.27-1.35-6.86,1.47-9.12
		c1.87-1.49,4.83-1.6,7.3-2.33C400.53,933.9,400.74,934.23,400.94,934.57z M400.9,941.65c0.03-4.36-0.71-5.58-3.2-5.65
		c-2.44-0.06-4.35,2.22-4.24,5.32c0.09,2.51,0.5,5.14,3.74,5.25C400.79,946.69,401.2,944.16,400.9,941.65z"/>
	<path class="st0" d="M560.4,933.46c3.97,3.07,8.38-2.55,10.34,1.81c2.65-0.4,5.47-1.69,6.74-0.8c1.57,1.11,2.21,3.98,2.59,6.21
		c0.42,2.46,0.1,5.05,0.1,7.58c-0.36,0.14-0.73,0.29-1.09,0.43c-0.44-0.75-1.2-1.48-1.26-2.27c-0.18-2.3,0.21-4.68-0.2-6.92
		c-0.22-1.25-1.59-2.29-2.43-3.42c-1.24,1.11-3.17,2.02-3.55,3.37c-0.6,2.15-0.07,4.6-0.23,6.9c-0.05,0.75-0.79,1.45-1.22,2.17
		c-0.37-0.76-1.01-1.51-1.06-2.3c-0.15-2.18,0.26-4.46-0.19-6.55c-0.28-1.31-1.74-2.36-2.67-3.53c-1.16,1.17-3,2.17-3.34,3.55
		c-0.57,2.3-0.11,4.84-0.24,7.27c-0.03,0.54-0.68,1.04-1.04,1.56c-0.41-0.34-1.16-0.68-1.17-1.03
		C560.37,943.05,560.4,938.62,560.4,933.46z"/>
	<path class="st0" d="M556.54,388.66c-2.2,0.38-3.75,0.64-5.29,0.91c-2.68,0.48-4.88-0.27-6.15-2.75c-1.6-3.12-1.7-6.33,0.25-9.35
		c2.11-3.26,5.2-2.99,8.75-1.73c0-2.07-0.08-3.87,0.05-5.65c0.04-0.57,0.65-1.09,1-1.64c0.47,0.43,1.33,0.85,1.34,1.29
		C556.57,376.25,556.54,382.76,556.54,388.66z M554.03,382.11c0.27-2.5,0.22-4.95-3.24-5.21c-2.42-0.18-4.26,2.1-4.18,5.33
		c0.06,2.51,0.42,5.14,3.71,5.25C553.97,387.6,554.21,384.95,554.03,382.11z"/>
	<path class="st0" d="M719.62,761.55c0,1.92,0.13,3.51-0.07,5.06c-0.07,0.59-0.9,1.09-1.38,1.63c-0.39-0.52-1.11-1.04-1.11-1.57
		c-0.08-6.18-0.05-12.35-0.05-18.06c2.12-0.35,3.75-0.47,5.29-0.9c2.9-0.8,5.73,0.2,6.39,3.11c0.57,2.49,0.69,5.36,0.02,7.78
		C727.71,762.25,724.9,762.97,719.62,761.55z M727.13,756.04c-0.15-3.76-0.51-6.33-3.76-6.38c-3.12-0.04-4.03,2.08-3.74,4.91
		c0.08,0.84-0.03,1.69,0.02,2.53c0.15,2.55,2.75,4.3,4.71,2.84C725.82,758.85,726.59,756.84,727.13,756.04z"/>
	<path class="st0" d="M527.38,184.24c6.07-1.47,10.94-0.47,12.26,2.38c1.31,2.84,0.19,5.66-3.43,8.35c1.38,2.5,2.77,5.04,4.16,7.57
		c-0.2,0.26-0.41,0.52-0.61,0.77c-0.89-0.6-2-1.03-2.62-1.84c-1.02-1.34-1.53-3.09-2.62-4.35c-0.98-1.12-2.46-1.81-3.71-2.7
		c-0.33,0.29-0.67,0.57-1,0.86c0,1.92,0.09,3.85-0.05,5.76c-0.05,0.67-0.68,1.3-1.04,1.95c-0.44-0.58-1.26-1.15-1.27-1.74
		C527.34,195.56,527.38,189.86,527.38,184.24z M530.04,184.97c0,3.24,0,5.35,0,8.55c2.66-0.89,4.95-1.37,6.88-2.48
		c0.6-0.34,0.68-3.24,0.21-3.5C535.09,186.44,532.75,185.89,530.04,184.97z"/>
	<path class="st0" d="M803.57,758.7c0.81-2.86,1.47-5.58,2.37-8.22c0.33-0.97,1.23-1.75,1.86-2.62c0.64,0.92,1.52,1.75,1.86,2.77
		c0.87,2.63,1.49,5.34,2.36,8.57c2.18-3.97,1.14-8.55,4.12-11.42c0.43,0.14,0.87,0.28,1.3,0.41c-1.2,4.36-2.36,8.74-3.67,13.07
		c-0.13,0.43-1.26,0.91-1.77,0.78c-0.65-0.17-1.44-0.85-1.64-1.48c-0.9-2.87-1.61-5.8-2.68-9.82c-0.96,3.59-1.5,6.18-2.37,8.65
		c-0.37,1.05-1.44,1.84-2.2,2.75c-0.73-0.95-1.78-1.8-2.13-2.87c-1.16-3.56-2.07-7.19-2.52-11.06
		C802.71,750.32,800.95,755.53,803.57,758.7z"/>
	<path class="st0" d="M557.15,746.03c-1.3-0.3-1.94-0.38-2.53-0.6c-4-1.52-6.87-0.45-8.42,3.16c-1.78,4.16-0.24,10.01,3.21,11.15
		c1.46,0.48,3.79,0.61,4.74-0.23c1.05-0.92,0.97-3.13,1.42-4.95c-1.89-0.36-3.12-0.59-4.36-0.82c-0.02-0.4-0.04-0.81-0.06-1.21
		c1.98-0.15,3.96-0.3,6.42-0.49c0,2.72,0.22,4.92-0.1,7.03c-0.14,0.96-1.18,2.1-2.11,2.56c-4.95,2.46-10.73-0.37-12.01-5.74
		c-1.73-7.26,1.94-13.36,8.19-13.45C553.77,742.41,555.96,742.78,557.15,746.03z"/>
	<path class="st0" d="M748.03,382.06c0,2.09,0.08,3.9-0.05,5.7c-0.04,0.57-0.66,1.11-1.02,1.66c-0.47-0.56-1.32-1.11-1.33-1.68
		c-0.1-5.23-0.09-10.46-0.02-15.69c0.01-0.61,0.63-1.76,0.85-1.74c3.52,0.41,7.16,0.58,10.43,1.75c0.98,0.35,1.66,3.88,1.11,5.5
		c-0.54,1.6-2.64,2.96-4.35,3.79C752.22,382.04,750.34,381.82,748.03,382.06z M748.3,380.39c2.8-1.02,5.11-1.52,6.96-2.73
		c0.61-0.4,0.52-3.48-0.13-3.87c-1.88-1.13-4.2-1.51-6.83-2.33C748.3,374.65,748.3,376.87,748.3,380.39z"/>
	<path class="st0" d="M764.96,377.94c2.87,0,5.6,0,8.79,0c0-2.23-0.08-4.27,0.05-6.3c0.03-0.52,0.74-1,1.14-1.49
		c0.39,0.51,1.11,1.02,1.12,1.54c0.09,5.36,0.1,10.73,0.01,16.09c-0.01,0.56-0.84,1.11-1.28,1.66c-0.35-0.54-0.98-1.06-1-1.61
		c-0.11-2.3-0.05-4.61-0.05-7.23c-2.97,0-5.7,0-9.05,0c0,2.84,0,5.79,0,8.73c-0.38,0.12-0.76,0.24-1.15,0.37
		c-0.44-0.61-1.16-1.17-1.27-1.84c-0.97-5.63-0.03-16.43,1.98-18.09C764.5,372.66,764.72,375.19,764.96,377.94z"/>
	<path class="st0" d="M362.86,375.89c0-2.18-0.08-3.99,0.05-5.8c0.04-0.56,0.68-1.07,1.04-1.6c0.46,0.43,1.32,0.86,1.32,1.29
		c0.09,6.5,0.06,13,0.06,19c-2.08,0.28-3.54,0.38-4.96,0.69c-2.81,0.61-5.07,0.02-6.45-2.68c-1.69-3.3-1.74-6.62,0.46-9.65
		C356.55,374.17,359.54,374.41,362.86,375.89z M362.81,382.06c0.24-2.63,0.13-5.06-3.4-5.1c-2.44-0.03-4.22,2.32-4.06,5.45
		c0.13,2.54,0.67,5.11,3.93,5.07C362.84,387.43,363.09,384.81,362.81,382.06z"/>
	<path class="st0" d="M815.73,582.32c0-7.23,0-13.84,0-20.09c1.82-0.31,3.55-0.5,5.22-0.91c2.57-0.63,4.52,0.08,5.89,2.35
		c1.73,2.85,1.5,7.28-0.42,10c-2.21,3.12-5.15,2.51-8.02,1.49C816.9,577.25,819.39,580.53,815.73,582.32z M817.87,569.21
		c-0.31,2.25,0.02,4.54,3.37,4.73c2.54,0.14,4.15-2.16,4.09-5.71c-0.04-2.43-0.42-4.73-3.5-4.95
		C819.16,563.1,817.88,564.95,817.87,569.21z"/>
	<path class="st0" d="M390.66,189.48c2.17-0.3,3.61-0.32,4.94-0.71c3.16-0.95,5.6,0,6.8,3.01c1.3,3.24,1.22,6.46-0.96,9.31
		c-2.12,2.78-4.94,2.65-8.42,1.01c0,2.13,0.09,3.78-0.05,5.4c-0.05,0.53-0.72,0.99-1.11,1.49c-0.4-0.49-1.14-0.98-1.14-1.47
		C390.64,201.35,390.66,195.18,390.66,189.48z M393.11,195.88c-0.26,2.62-0.35,5.12,3.27,5.21c2.73,0.07,4.23-1.91,4.13-5.68
		c-0.06-2.44-0.5-4.95-3.66-4.83C393.57,190.7,392.57,192.9,393.11,195.88z"/>
	<path class="st0" d="M561.15,370.59c7.29-1.57,11.93-0.07,12.79,3.91c0.95,4.41-1.46,6.29-10.31,7.71c0,1.81,0.11,3.72-0.06,5.61
		c-0.05,0.58-0.86,1.1-1.33,1.64c-0.36-0.53-1.03-1.05-1.04-1.59C561.12,382.08,561.15,376.28,561.15,370.59z M563.88,380.29
		c2.66-0.89,4.98-1.32,6.85-2.48c0.64-0.39,0.66-3.49,0.06-3.85c-1.96-1.16-4.33-1.63-6.91-2.49
		C563.88,374.79,563.88,377.03,563.88,380.29z"/>
	<path class="st0" d="M561.66,572.13c0.77,0.15,1.56,0.24,2.31,0.47c1.37,0.41,2.81,1.41,4.06,1.2c1.31-0.21,2.97-1.32,3.47-2.48
		c0.32-0.74-0.98-2.51-1.94-3.38c-0.94-0.85-2.41-1.11-3.6-1.71c-3.62-1.82-4.8-4.4-3.38-7.28c1.22-2.48,5.04-3.73,7.97-2.49
		c1.06,0.45,1.98,1.21,3.96,2.46c-1.74,0.32-2.42,0.63-3.02,0.51c-1.28-0.24-2.58-1.11-3.77-0.95c-1.09,0.15-2.49,1.14-2.89,2.12
		c-0.28,0.67,0.68,2.27,1.5,2.88c1.34,0.99,3.04,1.5,4.57,2.24c2.43,1.18,3.84,2.98,3.34,5.83c-0.51,2.85-2.53,3.97-5.14,4.39
		C565.88,576.47,563.72,575.67,561.66,572.13z"/>
	<path class="st0" d="M361.4,932.39c-1.13-0.38-2.3-1.17-3.37-1.05c-1.61,0.19-3.14,1.01-4.71,1.56c0.82,1.3,1.41,2.85,2.51,3.83
		c1.04,0.93,2.96,0.94,3.85,1.94c1.34,1.5,3.14,3.7,2.85,5.23c-0.34,1.78-2.51,4.02-4.3,4.5c-2.08,0.56-4.64-0.48-6.93-1.07
		c-0.48-0.12-0.7-1.29-1.04-1.97c0.72-0.01,1.45-0.11,2.15-0.01c0.45,0.07,0.84,0.48,1.3,0.64c2.3,0.83,4.85,1.29,6.12-1.23
		c1.39-2.75-1.12-3.78-3.09-4.79c-0.76-0.39-1.57-0.67-2.33-1.05c-3.56-1.8-4.73-4.13-3.5-6.93c1.12-2.54,4.8-3.92,7.87-2.79
		c1.15,0.42,2.15,1.25,3.22,1.89C361.8,931.52,361.6,931.96,361.4,932.39z"/>
	<path class="st0" d="M330.66,559.7c-1.14-0.37-2.32-1.15-3.39-1.03c-1.59,0.18-3.11,1.01-4.67,1.56c0.84,1.26,1.47,2.77,2.58,3.71
		c1.16,0.99,3.13,1.13,4.11,2.22c1.26,1.4,2.82,3.55,2.54,5.05c-0.32,1.7-2.35,3.93-4,4.31c-2.25,0.52-4.88-0.38-7.28-0.94
		c-0.49-0.11-0.7-1.41-1.04-2.16c0.73,0.05,1.49-0.01,2.19,0.16c1.49,0.37,3.01,1.3,4.42,1.15c1.17-0.13,2.87-1.32,3.11-2.34
		c0.23-0.96-0.92-2.53-1.87-3.4c-0.93-0.86-2.38-1.15-3.57-1.76c-3.78-1.95-4.97-4.41-3.53-7.18c1.51-2.9,5.79-4,8.93-2.22
		c0.76,0.43,1.35,1.15,2.02,1.73C331.03,558.95,330.85,559.33,330.66,559.7z"/>
	<path class="st0" d="M557.77,559.44c-0.95-0.21-1.9-0.4-2.84-0.64c-2.04-0.51-4.35-1.2-5.41,1.28c-1.06,2.48,1.09,3.35,2.9,4.19
		c1.1,0.51,2.21,1.01,3.29,1.57c2.24,1.16,3.62,2.86,3.2,5.55c-0.45,2.83-2.37,4.36-5,4.45c-2.09,0.08-4.25-0.51-6.29-1.11
		c-0.6-0.17-0.9-1.37-1.33-2.09c0.82,0.01,1.65-0.09,2.45,0.04c1.73,0.29,3.46,1.01,5.16,0.91c0.86-0.05,2.16-1.42,2.31-2.35
		c0.15-0.91-0.68-2.3-1.51-2.95c-1.21-0.95-2.81-1.39-4.2-2.13c-3.48-1.83-4.62-4.22-3.38-7c1.17-2.6,4.78-3.94,7.85-2.76
		c1.15,0.44,2.15,1.27,3.21,1.93C558.04,558.71,557.91,559.07,557.77,559.44z"/>
	<path class="st0" d="M769.74,761.53c-0.3,2.38-0.58,4.6-0.87,6.83c-0.49-0.06-0.98-0.12-1.46-0.18c0-6.65,0-13.31,0-19.63
		c1.65-0.28,3.25-0.68,4.87-0.8c1.29-0.1,2.73-0.17,3.87,0.29c2.92,1.19,4.14,6.39,2.64,10.41c-1.2,3.22-4.06,4.52-7.69,3.49
		C770.66,761.8,770.22,761.67,769.74,761.53z M769.48,755.17c-0.33,2.63-0.14,5.03,3.24,5.23c2.38,0.14,4.2-2.5,4.11-5.81
		c-0.06-2.42-0.52-4.9-3.54-4.91C769.69,749.65,769.04,752.17,769.48,755.17z"/>
	<path class="st0" d="M783.71,382.32c0,1.56,0.12,3.24-0.05,4.89c-0.08,0.79-0.71,1.52-1.09,2.27c-0.44-0.7-1.25-1.39-1.27-2.1
		c-0.11-5.57-0.06-11.14-0.06-16.63c6.39-1.89,11.78-0.34,12.74,3.53C795.09,378.73,792.87,380.54,783.71,382.32z M783.94,380.37
		c2.73-1.03,5.05-1.62,7.01-2.81c0.55-0.33,0.52-3.21-0.04-3.53c-1.98-1.15-4.31-1.69-6.97-2.63
		C783.94,374.75,783.94,376.99,783.94,380.37z"/>
	<path class="st0" d="M362.69,559.62c-0.96-0.31-1.98-0.98-2.88-0.85c-1.84,0.27-3.61,0.98-5.41,1.52c1,1.29,1.83,2.78,3.05,3.8
		c1.18,0.99,3.1,1.18,4.09,2.27c1.19,1.31,2.6,3.36,2.34,4.8c-0.3,1.66-2.14,3.94-3.66,4.26c-2.4,0.51-5.12-0.29-7.65-0.8
		c-0.46-0.09-0.68-1.42-1.01-2.18c0.74,0.05,1.49,0.01,2.2,0.17c1.61,0.36,3.22,1.22,4.78,1.11c1-0.07,2.49-1.38,2.69-2.36
		c0.19-0.95-0.72-2.49-1.6-3.21c-1.18-0.97-2.82-1.37-4.23-2.08c-2.31-1.18-4.45-2.93-3.39-5.64c0.68-1.74,2.61-3.51,4.38-4.17
		C358.95,555.3,361.47,556.27,362.69,559.62z"/>
	<path class="st0" d="M378.07,559.62c-1.42-0.38-2.86-1.14-4.24-1.04c-1.38,0.1-2.69,1.06-4.03,1.65c0.75,1.21,1.27,2.7,2.3,3.57
		c1.17,0.98,2.84,1.34,4.22,2.1c2.17,1.21,4.03,3.13,2.92,5.56c-0.83,1.82-2.86,3.91-4.67,4.24c-2.24,0.42-4.82-0.79-7.2-1.46
		c-0.33-0.09-0.39-1.16-0.57-1.78c0.63-0.05,1.32-0.27,1.9-0.11c1.6,0.44,3.17,1.49,4.72,1.44c1.14-0.04,2.89-1.26,3.16-2.28
		c0.26-0.95-0.84-2.58-1.77-3.46c-0.92-0.87-2.38-1.14-3.57-1.75c-2.23-1.13-4.73-2.53-3.91-5.37c0.52-1.78,2.26-3.78,3.95-4.52
		C373.94,555.24,376.66,556.07,378.07,559.62z"/>
	<path class="st0" d="M348.01,575.95c-0.69-1.03-1.72-1.98-2-3.11c-0.57-2.29-1.72-3.16-4.1-3.03c-2.27,0.12-4.34-0.07-4.88,2.99
		c-0.2,1.13-1.3,2.1-1.99,3.15c-0.39-0.23-0.79-0.46-1.18-0.69c1.9-5.71,3.75-11.44,5.75-17.11c0.25-0.72,1.3-1.6,1.97-1.6
		c0.66,0.01,1.64,0.93,1.9,1.66c2.01,5.59,3.88,11.24,5.79,16.87C348.85,575.36,348.43,575.65,348.01,575.95z M344.21,567.54
		c-0.91-2.97-1.66-5.42-2.72-8.84c-1.1,3.55-1.87,6.04-2.71,8.76c1.08,0.16,1.76,0.35,2.45,0.35
		C342.06,567.81,342.88,567.67,344.21,567.54z"/>
	<path class="st0" d="M695.89,745.93c-1.44-0.37-2.9-1.12-4.3-1c-1.35,0.12-2.62,1.13-3.93,1.74c0.68,1.16,1.11,2.64,2.09,3.4
		c1.41,1.1,3.55,1.35,4.76,2.57c1.29,1.31,2.73,3.45,2.51,5.02c-0.22,1.61-2.16,3.85-3.7,4.2c-2.27,0.51-4.89-0.29-7.3-0.82
		c-0.6-0.13-0.96-1.35-1.43-2.06c0.82,0.02,1.67-0.09,2.46,0.1c1.39,0.33,2.8,1.3,4.09,1.14c1.22-0.16,2.92-1.24,3.24-2.28
		c0.28-0.94-0.77-2.61-1.68-3.5c-0.9-0.88-2.38-1.15-3.58-1.73c-3.64-1.77-4.96-4.39-3.66-7.19c1.31-2.82,5.39-4.02,8.55-2.42
		c0.89,0.45,1.62,1.2,2.43,1.81C696.25,745.25,696.07,745.59,695.89,745.93z"/>
	<path class="st0" d="M343.54,199.37c0.77,0.21,1.54,0.44,2.31,0.62c1.5,0.36,3.04,1.05,4.5,0.9c1.07-0.11,2.78-1.27,2.86-2.09
		c0.11-1.12-0.83-2.61-1.76-3.49c-0.91-0.87-2.37-1.16-3.58-1.72c-2.31-1.08-4.66-2.63-3.94-5.38c0.46-1.76,2.26-3.74,3.96-4.49
		c2.65-1.16,5.33-0.31,7.13,2.05c-0.12,0.36-0.23,0.71-0.35,1.07c-0.97-0.32-1.91-0.71-2.9-0.95c-2.09-0.5-4.56-0.86-5.16,1.69
		c-0.24,1.01,1.62,2.76,2.84,3.81c1.06,0.93,2.89,1.06,3.78,2.08c1.25,1.42,2.83,3.43,2.64,5c-0.2,1.62-2.05,3.69-3.68,4.35
		c-3.33,1.36-6.57,0.49-9.04-2.21C343.28,200.2,343.41,199.78,343.54,199.37z"/>
	<path class="st0" d="M270.19,929.08c3.33,1.18,2.41,4.83,3.46,7.29c1.1,2.59,1.77,5.37,2.86,8.82c2.11-5.9,3.91-10.93,5.77-15.94
		c0.04-0.12,0.85,0.05,1.84,0.13c-2,6.24-3.75,12.24-5.9,18.1c-0.73,1.98-2.69,1.81-3.39-0.19c-2.05-5.8-3.82-11.7-5.7-17.57
		C269.48,929.51,269.84,929.29,270.19,929.08z"/>
	<path class="st0" d="M378.45,759.29c3.05,0.26,6.16,2.99,8.54-0.65c0.75-1.15,0.82-4.15,0.14-4.56c-1.91-1.17-4.37-1.43-7.67-2.34
		c0.33-2.1-0.12-5.99,1.61-7.98c1.23-1.42,5.4-0.28,8.26-0.28c0.01,0.5,0.02,1,0.03,1.5c-2.25,0.23-4.5,0.45-7.09,0.71
		c-0.14,1.41-0.28,2.81-0.39,3.81c2.56,0.94,4.99,1.51,7.05,2.72c0.88,0.51,1.31,2.32,1.38,3.57c0.18,3.11-1.2,5.51-4.34,6.35
		C382.89,762.97,380.19,762.29,378.45,759.29z"/>
	<path class="st0" d="M743.16,568.79c-0.06-4.36,2.71-7.67,6.49-7.74c3.76-0.07,6.66,3.2,6.7,7.55c0.04,4.38-2.78,7.54-6.69,7.49
		C745.87,576.04,743.22,573.06,743.16,568.79z M753.8,568.45c-0.04-2.96-1.77-5.2-4.03-5.2c-2.43,0-4.19,2.31-4.01,5.53
		c0.14,2.56,0.79,4.97,3.97,5.18C752.08,574.11,753.84,571.61,753.8,568.45z"/>
	<path class="st0" d="M774.51,203.97c-1.57-1.32-2.22-1.86-2.85-2.39c-5.24,3.4-8.27,1.93-8.6-4.22c-0.12-2.19-0.11-4.39,0.03-6.57
		c0.04-0.68,0.71-1.31,1.09-1.97c0.46,0.69,1.25,1.36,1.31,2.09c0.19,2.3-0.17,4.67,0.26,6.91c0.23,1.2,1.63,2.17,2.51,3.25
		c1.21-1.1,3.11-2.01,3.48-3.35c0.6-2.15,0.07-4.59,0.27-6.89c0.06-0.7,0.92-1.33,1.42-1.99c0.37,0.66,1.04,1.32,1.06,1.99
		C774.56,194.87,774.51,198.93,774.51,203.97z"/>
	<path class="st0" d="M740.35,568.78c-0.05,4.23-2.74,7.28-6.49,7.33c-3.86,0.05-6.78-3.19-6.74-7.49c0.04-4.34,2.94-7.61,6.73-7.56
		C737.59,561.09,740.4,564.44,740.35,568.78z M729.71,568.6c0.19,2.53,0.75,4.93,3.82,5.34c2.43,0.32,4.27-2.06,4.3-5.25
		c0.02-3.2-1.76-5.62-4.17-5.39C730.52,563.6,729.95,566,729.71,568.6z"/>
	<path class="st0" d="M308.63,193.53c-1.08-2.78-1.08-2.78-7.31-2.44c0.87-1.92,2.6-3.2,4.92-2.57c1.72,0.47,4.16,1.89,4.47,3.29
		c0.79,3.56,0.57,7.35,0.72,10.31c-2.45,0.43-4.17,1.13-5.77,0.91c-1.82-0.25-4.22-0.83-5.14-2.13c-1.45-2.04-0.28-4.29,2.05-5.34
		C304.42,194.72,306.43,194.25,308.63,193.53z M308.41,195.82c-2.49,0.34-5.3,0.13-5.68,3.51c-0.06,0.54,1.85,1.94,2.73,1.84
		C308.46,200.82,309.4,198.87,308.41,195.82z"/>
	<path class="st0" d="M748.34,183.51c3.8,4.51,3.09,11.05,6.07,16.09c2.51-5.27,2.41-11.41,5.81-16.06
		c0.46,0.16,0.92,0.33,1.38,0.49c-0.76,2.59-1.48,5.2-2.29,7.78c-0.97,3.13-1.94,6.27-3.07,9.35c-0.27,0.75-1.14,1.69-1.8,1.76
		c-0.65,0.06-1.8-0.75-2.03-1.42c-1.95-5.72-3.74-11.5-5.58-17.26C747.34,184,747.84,183.76,748.34,183.51z"/>
	<path class="st0" d="M427.37,941.25c0.04,4.46-2.69,7.62-6.55,7.6c-3.71-0.02-6.57-3.12-6.67-7.23c-0.11-4.43,2.58-7.62,6.48-7.7
		C424.68,933.82,427.34,936.72,427.37,941.25z M416.81,941.32c-0.03,3.21,1.7,5.49,4.18,5.28c3.18-0.26,3.83-2.75,3.85-5.24
		c0.01-2.51-0.73-4.96-3.82-5.33C418.63,935.73,416.84,938.1,416.81,941.32z"/>
	<path class="st0" d="M350.06,382.37c0,4.04-2.89,7.31-6.52,7.38c-3.82,0.08-6.81-3.16-6.86-7.41c-0.04-4.3,2.85-7.53,6.7-7.5
		C347.32,374.87,350.06,377.97,350.06,382.37z M339.32,382.59c0.23,2.28,0.8,4.66,3.94,4.95c2.36,0.22,4.31-2.28,4.13-5.37
		c-0.15-2.54-0.8-4.98-3.92-5.28C341.11,376.66,339.29,379.16,339.32,382.59z"/>
	<path class="st0" d="M531.42,382.46c-0.03,4.02-2.98,7.27-6.6,7.29c-3.8,0.02-6.77-3.28-6.76-7.51c0.01-4.31,2.88-7.45,6.79-7.4
		C528.72,374.89,531.46,378.06,531.42,382.46z M520.7,382.31c0.02,3.05,1.61,5.17,3.92,5.26c2.36,0.09,4.31-2.33,4.13-5.4
		c-0.15-2.55-0.82-4.98-3.93-5.28C522.47,376.64,520.67,379.14,520.7,382.31z"/>
	<path class="st0" d="M589.59,382.78c0.92,5.92,4.82,4.86,8.45,4.35c-1.41,2.81-5.2,3.43-7.94,1.56c-4.04-2.75-4.38-9.96-0.26-12.56
		c1.59-1,4.67-1.47,6-0.59c1.85,1.24,2.7,3.98,3.98,6.08c-0.3,0.38-0.61,0.77-0.91,1.15C595.88,382.78,592.85,382.78,589.59,382.78z
		 M596.66,380.83c0.24-2.6-0.98-4.03-3.2-4.02c-2.24,0.02-3.7,1.36-3.69,4.02C592.13,380.83,594.37,380.83,596.66,380.83z"/>
	<path class="st0" d="M782.55,754.7c0.12-4.35,2.72-7.23,6.55-7.24c3.79-0.01,6.66,3.3,6.62,7.61c-0.04,4.36-2.92,7.51-6.8,7.42
		C785.09,762.4,782.43,759.15,782.55,754.7z M793.11,754.93c-0.06-3.23-1.81-5.58-4.17-5.3c-3.31,0.39-3.86,3.03-3.83,5.63
		c0.03,2.53,0.9,4.9,3.99,5.13C791.44,760.56,793.16,758.08,793.11,754.93z"/>
	<path class="st0" d="M810.93,575.08c-1.91,0.23-3.48,0.25-4.96,0.63c-2.52,0.64-4.75,0.52-5.74-2.23
		c-1.02-2.85,0.48-4.73,3.07-5.71c1.57-0.6,3.26-0.86,5.14-1.33c-0.96-5.56-4.96-1.85-7.67-2.61c1.34-2.69,3.64-2.76,5.83-2.68
		c2.57,0.1,4.09,1.8,4.27,4.21C811.12,568.64,810.93,571.93,810.93,575.08z M808.19,568.13c-2.42,1.05-5.57,0.49-5.68,4.06
		c-0.02,0.59,1.92,1.86,2.8,1.73C808.19,573.52,809.34,571.67,808.19,568.13z"/>
	<path class="st0" d="M712.4,760.98c-2.35,0.51-3.88,0.74-5.34,1.19c-2.81,0.88-5.39-0.32-5.74-3.21c-0.39-3.12-0.32-6.3-0.31-9.46
		c0-0.53,0.69-1.06,1.07-1.59c0.45,0.58,1.23,1.13,1.28,1.74c0.18,2.3,0.13,4.62,0.15,6.93c0.02,2.01,0.48,3.91,2.92,3.71
		c2.13-0.18,3.46-1.56,3.37-3.97c-0.08-2.07-0.13-4.15,0.06-6.2c0.07-0.75,0.85-1.44,1.3-2.15c0.42,0.73,1.18,1.44,1.2,2.18
		C712.47,754.03,712.4,757.92,712.4,760.98z"/>
	<path class="st0" d="M592.12,939.06c-1.33-5.18-4.86-2.1-8.33-2.09c1.87-2.9,4.01-3.03,6.21-3.05c2.47-0.02,4.08,1.39,4.27,3.63
		c0.3,3.56,0.08,7.16,0.08,10.25c-1.75,0.26-3.33,0.39-4.85,0.74c-2.34,0.54-4.52,0.42-5.59-2.01c-1.11-2.53-0.14-4.58,2.37-5.65
		C588.04,940.14,589.94,939.73,592.12,939.06z M591.93,941.22c-2.56,0.65-5.61,0.09-5.81,3.7c-0.03,0.56,1.69,1.8,2.51,1.72
		C591.52,946.4,592.89,944.72,591.93,941.22z"/>
	<path class="st0" d="M381.83,382.82c-4.26,0-7.23,0-10.25,0c0.62,4.56,1.33,4.93,7.97,4.53c-0.89,2.17-3.59,3.1-6.35,2.02
		c-3.08-1.21-4.38-3.69-4.44-6.86c-0.07-3.13,0.92-6.04,3.98-7.1c1.68-0.58,4.43-0.38,5.68,0.68
		C379.97,377.41,380.48,379.97,381.83,382.82z M370.94,379.78c0.22,0.36,0.44,0.71,0.66,1.07c2.21,0,4.43,0,6.78,0
		c0.13-2.45-0.83-4.27-3.09-3.97C373.74,377.1,372.39,378.76,370.94,379.78z"/>
	<path class="st0" d="M322.25,936.53c2.09-2.98,4.8-3.16,7.06-2.31c1.44,0.54,2.34,2.69,3.3,4.22c0.34,0.55,0.22,1.42,0.23,2.14
		c0.02,2.54,0.01,5.07,0.01,7.12c-2.25,0.37-4.14,0.7-6.04,0.99c-2.26,0.35-4.16-0.14-4.93-2.58c-0.73-2.31,0.11-4.16,2.25-5.13
		c1.84-0.83,3.84-1.28,5.76-1.89C329.31,936.52,329.31,936.52,322.25,936.53z M329.93,941.31c-2.45,0.42-5.37,0.01-5.7,3.49
		c-0.05,0.55,1.87,1.92,2.74,1.81C329.89,946.24,331.03,944.41,329.93,941.31z"/>
	<path class="st0" d="M336.29,193.65c-1.11-5.62-5.17-1.57-7.85-2.74c1.99-2.42,4.5-3.2,6.81-2.16c1.54,0.69,3.13,2.75,3.41,4.41
		c0.54,3.14,0.16,6.43,0.16,9.1c-2.01,0.31-3.56,0.48-5.08,0.8c-2.47,0.52-4.77,0.4-5.75-2.33c-0.95-2.64,0.35-4.51,2.82-5.48
		C332.47,194.6,334.25,194.23,336.29,193.65z M336.06,195.63c-2.53,0.79-5.66,0.28-5.64,3.94c0,0.54,2.02,1.61,2.99,1.49
		C336.31,200.69,337.03,198.73,336.06,195.63z"/>
	<path class="st0" d="M543.34,572.74c-0.51,0.73-0.89,1.78-1.63,2.27c-3.12,2.03-7.85,1.09-10.14-1.87
		c-3.1-3.99-2.9-10.94,0.43-14.54c2.63-2.84,7.33-3.49,9.9-1.28c0.44,0.38,0.53,1.16,0.79,1.75c-0.62,0.08-1.3,0.37-1.84,0.2
		c-4.37-1.44-6.83-0.59-8.28,2.95c-1.75,4.28-0.35,10.04,3.2,11.09C537.78,573.91,540.24,573.03,543.34,572.74z"/>
	<path class="st0" d="M565.65,193.55c-1.28-5.37-5-1.72-7.79-2.47c1.48-2.6,3.89-3.1,5.89-2.49c1.64,0.51,3.78,2.28,4.05,3.79
		c0.61,3.37,0.19,6.93,0.19,9.89c-1.86,0.29-3.53,0.49-5.17,0.83c-2.38,0.5-4.53,0.23-5.44-2.3c-0.86-2.4,0.09-4.38,2.43-5.4
		C561.57,194.64,563.47,194.22,565.65,193.55z M565.49,195.69c-2.56,0.56-5.5,0.23-5.84,3.71c-0.05,0.54,1.68,1.83,2.51,1.77
		C565.11,200.95,566.47,199.24,565.49,195.69z"/>
	<path class="st0" d="M586.07,566.64c1.76,1.03,3.04,3.32,1.66,6.43c-1.13,2.54-4.54,3.74-7.95,2.65c-1.3-0.42-2.37-1.57-3.25-2.96
		c3.21,0.62,6.73,3.38,8.75-0.75c2.42-4.94-3.6-3.92-5.57-6.08c1.89-1.81,6.42-1.18,5.2-5.01c-1.46-4.57-4.99-0.92-7.91-1.01
		c0.99-2.76,3-3.67,5.11-3.21c1.83,0.4,4.35,1.48,4.91,2.91C587.68,561.28,586.56,563.67,586.07,566.64z"/>
	<path class="st0" d="M789.67,201.38c-4.08,2.86-8.38,2.23-10.4-1.18c-2.24-3.79-0.83-9.37,2.74-11.17c3.97-2.01,9.36,1.01,7.8,7.48
		c-1.4,0-2.92,0-4.45,0c-1.44,0-2.88,0-4.36,0C781.55,199.99,781.55,199.99,789.67,201.38z M787.54,194.45
		c0.29-0.4,0.57-0.8,0.86-1.21c-1.21-0.95-2.53-2.79-3.59-2.65c-1.59,0.21-2.99,1.8-4.48,2.81c0.2,0.35,0.39,0.7,0.59,1.05
		C783.13,194.45,785.33,194.45,787.54,194.45z"/>
	<path class="st0" d="M553.95,202.37c-2.04,0.25-4.14,0.92-6.12,0.67c-3.14-0.4-5.05-3.38-5.07-7.03c-0.03-3.85,1.96-6.74,5.13-7.47
		c4.22-0.98,6.92,2.07,6.54,7.85c-2.92,0-5.89,0-9.06,0c0.65,6.12,5.02,4.62,8.7,4.4C554.02,201.31,553.99,201.84,553.95,202.37z
		 M544.9,193.08c0.21,0.42,0.42,0.84,0.63,1.27c2.27,0,4.54,0,6.81,0c0.18-0.32,0.37-0.64,0.55-0.96c-1.09-0.98-2.27-2.85-3.27-2.75
		C548,190.78,546.47,192.2,544.9,193.08z"/>
	<path class="st0" d="M316.07,949.21c-0.43-0.66-0.86-1.32-1.32-2.02c-5.29,3.24-8.2,1.76-8.5-4.62c-0.1-2.18-0.13-4.37,0.01-6.55
		c0.04-0.64,0.78-1.23,1.21-1.84c0.42,0.6,1.16,1.17,1.2,1.8c0.15,2.3-0.22,4.66,0.2,6.89c0.25,1.34,1.46,3.36,2.48,3.52
		c2.24,0.35,3.87-1.09,3.9-3.67c0.02-2.31-0.05-4.61,0.07-6.91c0.03-0.56,0.65-1.08,1-1.63c0.44,0.44,1.25,0.86,1.26,1.31
		c0.1,4.3,0.06,8.6,0.06,12.9C317.1,948.67,316.59,948.94,316.07,949.21z"/>
	<path class="st0" d="M744.51,755.55c-2.95,0-5.92,0-8.96,0c0.75,4.67,1.59,5.1,8.01,4.55c-1.09,2.3-4.35,3.07-7.12,1.61
		c-2.93-1.55-3.97-4.15-3.77-7.32c0.2-3.05,1.6-5.36,4.49-6.53C741.43,746.16,744.75,749.45,744.51,755.55z M734.96,752.12
		c0.24,0.46,0.49,0.91,0.73,1.37c2.19,0,4.38,0,6.57,0c0.2-0.31,0.4-0.62,0.61-0.92c-1.06-1.01-2.19-2.91-3.16-2.83
		C738.06,749.88,736.53,751.26,734.96,752.12z"/>
	<path class="st0" d="M831.46,755.55c-3.24,0-6.11,0-8.99,0c-0.27,0.34-0.54,0.68-0.81,1.01c1.13,1.24,2.04,3.01,3.44,3.57
		c1.55,0.62,3.54,0.14,5.57,0.14c-2.56,2.49-5.6,2.82-8.19,1.09c-2.94-1.97-4-6.2-2.45-9.77c1.29-2.97,4.19-4.65,6.98-3.92
		C830.8,748.67,831.51,751.6,831.46,755.55z M828.95,753.56c0.14-2.57-0.79-4.13-3.18-4.02c-2.3,0.1-3.59,1.5-3.48,4.02
		C824.59,753.56,826.7,753.56,828.95,753.56z"/>
	<path class="st0" d="M387.11,947.64c-2.26,0.31-3.6,0.24-4.73,0.7c-3.24,1.31-6.03,0-6.41-3.48c-0.33-3-0.26-6.06-0.23-9.09
		c0.01-0.53,0.69-1.06,1.06-1.59c0.46,0.56,1.27,1.09,1.31,1.68c0.16,2.42-0.22,4.91,0.23,7.25c0.25,1.28,1.76,2.31,2.7,3.46
		c1.22-1.13,3.12-2.06,3.5-3.42c0.6-2.14,0.07-4.58,0.24-6.87c0.05-0.72,0.82-1.4,1.25-2.09c0.36,0.65,1.02,1.3,1.03,1.96
		C387.16,940.21,387.11,944.28,387.11,947.64z"/>
	<path class="st0" d="M533.29,939.69c-2.22,0.12-4.44,0.23-7.17,0.37c0,2.24,0.09,4.39-0.05,6.53c-0.04,0.67-0.71,1.29-1.09,1.93
		c-0.43-0.6-1.21-1.19-1.22-1.8c-0.09-5.7-0.06-11.41-0.06-17.11c3.9,0,7.47,0,11.05,0c0.02,0.43,0.03,0.86,0.05,1.29
		c-2.72,0.16-5.45,0.32-8.42,0.5c0,1.99,0,3.87,0,5.98c2.37,0.29,4.72,0.57,7.06,0.85C533.4,938.72,533.34,939.21,533.29,939.69z"/>
	<path class="st0" d="M332.18,745.34c-2.14-0.29-3.94-0.53-6.23-0.83c2.59-2.16,11.51-2.31,15.2-0.23c-2.38,0.43-4.02,0.72-6.3,1.13
		c0,4.36,0.09,8.94-0.06,13.5c-0.04,1.07-0.87,2.11-1.33,3.17c-0.42-1.07-1.18-2.13-1.21-3.21
		C332.1,754.38,332.18,749.89,332.18,745.34z"/>
	<path class="st0" d="M285.8,200.02c0.49-0.25,0.76-0.51,0.91-0.45c5.98,2.25,6.7,1.74,6.71-4.78c0-2.93-0.08-5.86,0.06-8.78
		c0.04-0.76,0.73-1.5,1.13-2.24c0.49,0.67,1.39,1.33,1.41,2.01c0.07,4.26,0.1,8.54-0.17,12.79c-0.16,2.51-1.61,4.3-4.33,4.7
		C288.77,203.68,287.2,202.82,285.8,200.02z"/>
	<path class="st0" d="M780.02,562.37c0.9-1.68,1.81-3.36,3.23-6c0.46,2.1,0.71,3.28,1.02,4.67c1.09,0.28,2.28,0.58,3.46,0.88
		c0.05,0.29,0.11,0.59,0.16,0.88c-1.2,0.41-2.39,0.82-3.6,1.23c-1.06,8.19-0.7,9.27,3.45,10.53c-1.99,2.33-5.02,1.87-5.79-1.07
		c-0.51-1.96-0.23-4.11-0.56-6.14C781.12,565.66,780.49,564.04,780.02,562.37z"/>
	<path class="st0" d="M373.14,947.51c-4.53,2.07-6.8,1.01-7.2-2.69c-0.19-1.8,0.08-3.65-0.15-5.45c-0.18-1.38-0.81-2.71-1.42-4.63
		c0.69-1.11,1.79-2.88,3.32-5.34c0.46,1.99,0.74,3.18,1.01,4.36c1.24,0.29,2.42,0.56,3.61,0.83c0.01,0.32,0.02,0.65,0.04,0.97
		c-1.24,0.34-2.48,0.68-4.06,1.11C369.52,940.35,365.38,945.8,373.14,947.51z"/>
	<path class="st0" d="M601.91,386.58c1.44,0.36,2.87,0.94,4.31,0.99c0.92,0.03,1.87-0.74,2.8-1.15c-0.51-0.98-0.85-2.12-1.59-2.87
		c-0.63-0.64-2.02-0.6-2.56-1.27c-1.09-1.36-2.83-3.32-2.47-4.44c0.42-1.33,2.68-2.47,4.34-2.87c1.27-0.31,2.85,0.67,4.29,1.07
		c-0.14,0.47-0.28,0.95-0.42,1.42c-1.04-0.23-2.09-0.7-3.1-0.63c-0.96,0.07-1.88,0.71-2.82,1.1c0.47,0.87,0.74,1.97,1.45,2.56
		c0.9,0.76,2.36,0.89,3.18,1.7c1.01,1.01,2.37,2.57,2.18,3.64c-0.24,1.36-1.67,3.07-2.98,3.56
		C605.96,390.35,603.36,389.88,601.91,386.58z"/>
	<path class="st0" d="M852.78,750.18c-0.99-0.23-2.01-0.73-2.95-0.6c-1.04,0.14-2,0.85-2.99,1.32c0.56,0.82,0.96,1.83,1.71,2.4
		c0.95,0.72,2.44,0.82,3.2,1.65c0.96,1.05,2.08,2.66,1.91,3.85c-0.18,1.23-1.62,2.69-2.87,3.26c-2.78,1.27-5.63,0.03-6.75-2.8
		c1.55,0.45,2.86,1.1,4.18,1.12c1.02,0.01,2.06-0.78,3.09-1.22c-0.53-0.96-0.9-2.07-1.65-2.82c-0.64-0.65-1.71-0.88-2.59-1.3
		c-1.91-0.9-3.78-2.36-2.61-4.42c0.84-1.48,3.01-2.54,4.79-3.01c1.15-0.3,2.67,0.79,4.03,1.26
		C853.12,749.32,852.95,749.75,852.78,750.18z"/>
	<path class="st0" d="M768.55,572.95c1.15,0.34,2.32,1,3.45,0.94c1.27-0.07,2.49-0.8,3.74-1.25c-0.7-0.99-1.3-2.07-2.13-2.93
		c-0.46-0.48-1.5-0.43-1.93-0.93c-1.09-1.26-2.72-2.68-2.74-4.06c-0.02-1.12,1.77-2.73,3.11-3.33c2.06-0.91,4.07-0.17,5.27,2.35
		c-1.21-0.22-2.44-0.69-3.61-0.56c-0.9,0.1-1.72,0.95-2.58,1.47c0.5,0.74,0.86,1.67,1.54,2.16c0.97,0.69,2.43,0.8,3.2,1.61
		c1.05,1.11,2.38,2.75,2.22,3.98c-0.17,1.24-1.83,2.7-3.17,3.27c-2.48,1.05-4.87,0.36-6.72-1.61
		C768.31,573.7,768.43,573.32,768.55,572.95z"/>
	<path class="st0" d="M614.19,386.57c1.25,0.33,2.51,0.95,3.75,0.91c1.16-0.03,2.31-0.74,3.46-1.16c-0.65-1-1.23-2.06-1.99-2.96
		c-0.35-0.42-1.22-0.39-1.6-0.8c-1.21-1.3-2.8-2.58-3.22-4.14c-0.22-0.83,1.47-2.77,2.68-3.24c2.09-0.82,4.37-0.57,5.72,2.23
		c-1.16-0.24-2.35-0.75-3.49-0.65c-0.92,0.09-1.76,0.92-2.64,1.42c0.46,0.75,0.77,1.7,1.42,2.21c0.83,0.66,1.94,0.96,2.93,1.42
		c1.94,0.9,3.6,2.38,2.55,4.48c-0.74,1.47-2.6,3.01-4.16,3.25c-1.85,0.29-3.91-0.77-5.88-1.24
		C613.88,387.73,614.04,387.15,614.19,386.57z"/>
	<path class="st0" d="M302.51,936.7c-1.38-0.3-2.26-0.72-3.07-0.61c-1.16,0.16-2.27,0.72-3.39,1.1c0.63,0.89,1.12,1.94,1.93,2.62
		c0.81,0.68,2.18,0.76,2.85,1.5c0.96,1.06,2.27,2.64,2.05,3.72c-0.28,1.34-1.84,3.22-3.06,3.4c-2.25,0.33-4.65-0.42-6.99-0.72
		c0.09-0.6,0.18-1.19,0.27-1.79c1.06,0.19,2.14,0.6,3.17,0.51c1.4-0.12,2.77-0.61,4.16-0.95c-0.86-1.1-1.62-2.3-2.61-3.27
		c-0.57-0.56-1.75-0.55-2.21-1.14c-0.88-1.14-2.23-2.75-1.95-3.77c0.36-1.3,1.97-2.8,3.33-3.17
		C298.82,933.64,301.24,933.4,302.51,936.7z"/>
	<path class="st0" d="M314.95,188.61c3.51,2.79,2.88,7.67,5.17,11.39c2.52-3.42,1.9-8.48,5.06-11.41c0.43,0.2,0.86,0.41,1.29,0.61
		c-1.5,4.28-2.81,8.64-4.6,12.8c-0.82,1.91-2.74,1.66-3.52-0.24c-1.68-4.11-3.05-8.34-4.55-12.52
		C314.19,189.04,314.57,188.83,314.95,188.61z"/>
	<path class="st0" d="M582.46,190.51c-7.56,1.16-8.45,1.81-8.24,5.77c0.2,3.71,1.23,4.31,8.02,4.64c-1.61,2.64-5.18,3.18-7.89,1.18
		c-3.18-2.33-3.74-7.82-1.16-11.18C575.58,187.83,579.25,187.55,582.46,190.51z"/>
	<path class="st0" d="M761.68,556.57c0.53,2.02,0.84,3.21,1.18,4.55c1.08,0.23,2.23,0.47,3.38,0.71c0.07,0.26,0.14,0.52,0.22,0.78
		c-1.15,0.45-2.31,0.91-3.53,1.39c-1.54,6.82-0.81,9.14,3.45,10.72c-2.54,2.16-5.48,1.49-6.18-1.58c-0.4-1.75-0.11-3.65-0.37-5.45
		c-0.25-1.8-0.8-3.56-1.29-5.64C759.23,560.85,760.24,559.09,761.68,556.57z"/>
	<path class="st0" d="M592.71,201.83c-3.12,2.39-6.05,1.51-6.59-1.81c-0.33-2.01,0-4.12-0.24-6.16c-0.17-1.4-0.81-2.74-1.35-4.48
		c0.67-1.19,1.68-2.97,3.18-5.62c0.52,2.09,0.81,3.27,1.13,4.54c1.14,0.33,2.32,0.66,3.5,1c0.01,0.29,0.03,0.59,0.04,0.88
		c-1.15,0.26-2.3,0.53-3.46,0.8C587.42,198.19,588.19,200.63,592.71,201.83z"/>
	<path class="st0" d="M567.91,748.58c0.74-1.3,1.7-2.99,3.1-5.47c0.54,1.78,0.9,3,1.3,4.34c1.06,0.29,2.23,0.61,3.4,0.93
		c0,0.26,0,0.52,0.01,0.78c-1.15,0.34-2.29,0.68-3.42,1.01c-1.31,7.6-0.76,9.36,3.41,10.93c-2.64,2.17-5.32,1.48-6.01-1.75
		c-0.4-1.87-0.1-3.88-0.39-5.79C569.06,751.92,568.41,750.31,567.91,748.58z"/>
	<path class="st0" d="M368.98,190.98c-6.08-0.62-7.99,0.5-8.15,4.51c-0.18,4.45,1.67,5.64,8.1,5.25c-0.95,2.25-2.48,3.01-5.27,2.45
		c-3.5-0.71-5.05-3.13-5.39-6.49c-0.38-3.85,1.6-7.05,4.91-8.03C365.83,187.88,367.44,188.45,368.98,190.98z"/>
	<path class="st0" d="M368.14,759.72c3.14,0.27,5.85,0.5,8.56,0.74c-0.02,0.41-0.04,0.81-0.06,1.22c-3.47,0-6.93,0-10.9,0
		c0-5.58-0.03-11.38,0.05-17.17c0.01-0.53,0.69-1.05,1.06-1.58c0.43,0.72,1.21,1.43,1.23,2.16
		C368.19,749.92,368.14,754.75,368.14,759.72z"/>
	<path class="st0" d="M405.01,189.25c0.35-0.41,1.14-1.11,1.62-1.97c0.43-0.77,0.51-1.73,0.75-2.61c0.35,0.03,0.7,0.06,1.05,0.09
		c0.25,1.09,0.51,2.18,0.8,3.45c1.09,0.36,2.31,0.76,3.53,1.16c-0.03,0.29-0.06,0.57-0.09,0.86c-1.08,0.25-2.17,0.5-3.25,0.74
		c-1.47,6.66-0.89,8.56,3.4,11.22c-3.09,2.06-5.63,1.14-6.15-2.37c-0.28-1.91-0.01-3.9-0.26-5.82
		C406.22,192.54,405.6,191.17,405.01,189.25z"/>
	<path class="st0" d="M579.13,374.95c0.55,0.49,1.11,0.99,1.33,1.19c1.86-0.49,3.49-0.93,5.44-1.45c-0.14,1.15-0.13,1.58-0.2,1.6
		c-5.89,1.15-5.07,5.7-5.01,9.86c0.01,0.73,0.11,1.49-0.09,2.16c-0.13,0.46-0.84,1.17-1.06,1.1c-0.55-0.19-1.37-0.76-1.38-1.19
		c-0.1-4.3-0.06-8.61-0.06-12.92C578.44,375.18,578.79,375.07,579.13,374.95z"/>
	<path class="st0" d="M798.67,562.44c-0.44,0.33-0.85,0.92-1.31,0.96c-3.25,0.24-3.9,2.4-3.92,5.08c-0.02,1.94,0.05,3.9-0.12,5.83
		c-0.04,0.48-0.81,1.02-1.36,1.25c-0.19,0.08-1.06-0.69-1.07-1.08c-0.08-4.29-0.05-8.58-0.05-13.77c1.43,1.14,2,1.6,2.52,2.01
		c1.51-0.53,3.2-1.13,4.88-1.72C798.38,561.48,798.53,561.96,798.67,562.44z"/>
	<path class="st0" d="M756.17,748.7c-0.52,0.33-1,0.86-1.56,0.97c-2.67,0.5-3.48,2.33-3.56,4.72c-0.07,2.06,0.03,4.12-0.12,6.17
		c-0.04,0.53-0.73,1.01-1.13,1.52c-0.47-0.54-1.33-1.07-1.35-1.63c-0.12-4.07-0.06-8.15-0.06-11.76c2.86-0.36,5.18-0.66,7.49-0.95
		C755.98,748.05,756.07,748.37,756.17,748.7z"/>
	<path class="st0" d="M339.92,949.16c-0.89-1.01-2.49-1.99-2.55-3.04c-0.27-5.59-0.18-11.2-0.1-16.8c0.01-0.6,0.79-1.19,1.21-1.78
		c0.37,0.66,1.04,1.3,1.05,1.97c0.1,4.14-0.03,8.28,0.09,12.42c0.06,2.08,0.49,4.14,0.76,6.21
		C340.24,948.47,340.08,948.82,339.92,949.16z"/>
	<path class="st0" d="M535.55,389.93c0-5.19,0-9.82,0-14.06c2.43-0.27,4.78-0.53,7.48-0.84c-0.36,0.85-0.48,1.6-0.71,1.63
		c-4.6,0.61-4.75,3.84-4.79,7.47C537.52,385.9,538.79,388.39,535.55,389.93z"/>
	<path class="st0" d="M372.94,189.7c2.1-0.31,3.17-0.53,4.24-0.61c1.06-0.07,2.14,0.01,3.2,0.02c-0.72,0.54-1.6,0.95-2.12,1.64
		c-1.09,1.44-2.41,2.91-2.84,4.58c-0.49,1.94-0.05,4.1-0.19,6.15c-0.04,0.53-0.72,1.01-1.11,1.51c-0.4-0.49-1.13-0.98-1.14-1.48
		C372.9,197.34,372.94,193.15,372.94,189.7z"/>
	<path class="st0" d="M835.19,748.89c2.12-0.43,3.43-0.81,4.77-0.92c0.9-0.08,1.83,0.23,2.75,0.36c-0.65,0.48-1.44,0.85-1.91,1.47
		c-1.15,1.51-2.57,3-3.09,4.74c-0.53,1.77-0.03,3.84-0.19,5.76c-0.05,0.61-0.77,1.17-1.19,1.75c-0.38-0.62-1.07-1.22-1.08-1.85
		C835.14,756.25,835.19,752.28,835.19,748.89z"/>
	<path class="st0" d="M538.3,948.44c0-4.3-0.04-8.61,0.06-12.91c0.01-0.46,0.8-0.91,1.22-1.36c0.34,0.41,0.97,0.82,0.98,1.23
		c0.08,3.98,0.07,7.96,0.03,11.93c-0.01,0.86-0.22,1.71-0.33,2.57C539.61,949.42,538.95,948.93,538.3,948.44z"/>
	<path class="st0" d="M410.35,941.13c0,1.95,0.08,3.9-0.05,5.84c-0.04,0.54-0.71,1.04-1.09,1.55c-0.4-0.49-1.14-0.98-1.16-1.48
		c-0.1-3.77-0.1-7.55-0.01-11.32c0.01-0.52,0.7-1.03,1.08-1.55c0.41,0.49,1.14,0.96,1.18,1.48
		C410.44,937.47,410.35,939.3,410.35,941.13z"/>
	<path class="st0" d="M289.14,933.59c0,5.01,0.03,9.32-0.04,13.62c-0.01,0.43-0.56,1.09-0.97,1.19c-0.34,0.08-1.21-0.51-1.21-0.81
		c-0.02-4.32,0.06-8.64,0.19-12.96C287.12,934.42,287.85,934.23,289.14,933.59z"/>
	<path class="st0" d="M384.39,188.61c0.43,0.7,1.2,1.4,1.23,2.11c0.13,3.5,0.11,7.01-0.01,10.52c-0.02,0.6-0.78,1.18-1.19,1.78
		c-0.37-0.5-1.05-1-1.06-1.51c-0.09-4.18-0.05-8.36-0.05-12.54C383.68,188.84,384.04,188.73,384.39,188.61z"/>
	<path class="st0" d="M564.67,755.19c0,1.69,0.11,3.39-0.05,5.07c-0.06,0.63-0.75,1.2-1.16,1.8c-0.39-0.5-1.09-0.99-1.11-1.5
		c-0.1-3.74-0.1-7.49,0-11.23c0.01-0.49,0.75-0.97,1.15-1.45c0.39,0.51,1.07,0.99,1.11,1.52
		C564.75,751.32,564.66,753.25,564.67,755.19z"/>
	<path class="st0" d="M760.93,508.13c0-4.41,0-8.49,0-12.89c5.1,0,10.04-0.28,14.94,0.1c3.25,0.25,5.1,2.6,5.24,5.97
		c0.14,3.43-2.13,6.44-5.81,6.73C770.63,508.41,765.92,508.13,760.93,508.13z"/>
	<path class="st0" d="M760.91,489.77c0-3.86,0-7.35,0-11.34c4.37,0,8.6-0.06,12.83,0.02c3.15,0.06,5.4,1.29,5.59,4.89
		c0.2,3.58-1.36,6.02-5.04,6.34C769.96,490.06,765.59,489.77,760.91,489.77z"/>
	<path class="st0" d="M751.54,310.24c0.49-7.45,0.86-8.04,4.44-7.77c2.41,0.18,3.55,1.25,3.26,3.75
		C758.83,309.73,756.76,310.89,751.54,310.24z"/>
	<path class="st0" d="M784.43,310.14c0.05-6.43,0.83-7.84,4.13-7.69c2.47,0.11,3.9,1.05,3.53,3.78
		C791.59,309.86,789.2,311.09,784.43,310.14z"/>
	<path class="st0" d="M574.68,325.69c-3.52-10.44-7.03-20.88-10.56-31.33c1.47-0.63,2.79-1.19,4.11-1.76
		c-0.07-0.44-0.15-0.88-0.22-1.32c-5.85-0.49-11.7-0.47-17.74,0.58c6.72,2.59,5.61,9.39,8.25,13.95c0.27,0.47,0.32,1.25,0.15,1.78
		c-2.03,6.2-4.12,12.38-6.94,18.51c-3.53-10.56-7.07-21.12-10.68-31.91c1.52-0.47,2.82-0.87,4.92-1.52
		c-3.82-2.97-7.58-0.47-10.8-1.52c5.12-12.99,30.22-19.77,44.07-6.5c-1.35,1.73-3.57,3.33-3.75,5.13c-0.23,2.32,0.72,5.06,1.96,7.15
		c3.15,5.29,3.93,10.59,1.82,16.43c-1.46,4.05-2.55,8.22-3.81,12.34C575.21,325.69,574.94,325.69,574.68,325.69z"/>
	<path class="st0" d="M560.74,311.86c3.03,8.29,6.06,16.58,9.08,24.85c-5.02,2.83-13.01,3.11-18.67,0.58
		c2.91-8.44,5.82-16.92,8.74-25.39C560.17,311.88,560.46,311.87,560.74,311.86z"/>
	<path class="st0" d="M546.24,335.19c-14.22-6.04-21.4-25.38-14.18-38.78C536.87,309.58,541.48,322.17,546.24,335.19z"/>
	<path class="st0" d="M575.8,333.55c4.06-12.62,8.08-25.15,11.98-37.29C595.67,304.27,588.72,327.72,575.8,333.55z"/>
</g>
</svg>
