<?xml version="1.0" encoding="utf-8"?>
<!-- Generator: Adobe Illustrator 27.0.0, SVG Export Plug-In . SVG Version: 6.00 Build 0)  -->
<svg version="1.1" id="Layer_1" xmlns="http://www.w3.org/2000/svg" xmlns:xlink="http://www.w3.org/1999/xlink" x="0px" y="0px"
	 viewBox="0 0 1080 1080" style="enable-background:new 0 0 1080 1080;" xml:space="preserve">
<style type="text/css">
	.st0{fill:#FFFFFF;}
</style>
<g>
	<path class="st0" d="M215.91,606.78c0-3.32,0-6.65,0-9.97c1.29-0.67,1.2-1.94,1.33-3.1c0.72-6.41,2.44-12.56,4.89-18.51
		c3.83-9.31,9.34-17.57,15.92-25.14c9.26-10.65,20.12-19.43,31.85-27.18c15.29-10.11,31.63-18.2,48.54-25.18
		c16.01-6.61,32.42-12.07,49.05-16.9c0.76-0.22,1.47-0.58,2.25-0.89c-0.08-0.68-0.08-1.15-0.19-1.59
		c-3.51-13.8-6.42-27.72-8.67-41.78c-1.82-11.37-3.2-22.79-3.82-34.29c-0.65-12.09-0.69-24.19,0.45-36.27
		c1-10.54,2.79-20.92,5.9-31.04c3.49-11.32,8.44-21.91,15.91-31.19c12.48-15.51,28.7-24.13,48.5-25.83
		c9.99-0.85,19.9,0.13,29.68,2.36c11.85,2.7,23.15,6.92,34.09,12.14c16.33,7.8,31.49,17.51,45.98,28.31
		c14.39,10.72,27.91,22.45,40.89,34.83c0.92,0.88,1.66,2.03,3.13,2.42c0.84-0.79,1.71-1.59,2.56-2.4
		c8.66-8.29,17.59-16.28,26.87-23.87c14.99-12.27,30.7-23.51,47.67-32.91c13.74-7.61,28.01-13.92,43.31-17.74
		c12.07-3.01,24.26-4.3,36.68-2.66c9.29,1.22,17.99,4.14,26.03,8.97c11.48,6.91,20.05,16.57,26.43,28.24
		c5.16,9.44,8.53,19.53,10.85,30c2.76,12.45,3.86,25.08,4.04,37.79c0.19,13.42-0.81,26.79-2.46,40.11
		c-1.84,14.84-4.54,29.53-7.92,44.09c-0.93,4.02-1.88,8.04-2.88,12.28c0.98,0.36,1.83,0.72,2.71,0.98
		c14.8,4.32,29.43,9.11,43.76,14.8c17.55,6.98,34.55,15.08,50.5,25.25c10.94,6.98,21.19,14.82,30.24,24.15
		c8.49,8.76,15.64,18.46,20.34,29.8c2.83,6.83,4.93,13.84,4.94,21.34c0,1.15,0.35,2.3,0.53,3.44c0,1.66,0,3.32,0,4.98
		c-0.2,1.28-0.44,2.55-0.58,3.83c-0.24,2.12-0.26,4.27-0.64,6.36c-1.72,9.46-5.49,18.12-10.57,26.24
		c-5.01,7.99-11.13,15.06-17.97,21.54c-9.78,9.27-20.69,17.03-32.23,23.91c-15.22,9.08-31.25,16.45-47.75,22.83
		c-13.27,5.14-26.79,9.55-40.46,13.5c-0.99,0.29-2.1,0.36-2.76,1.36c1.24,5.34,2.5,10.65,3.69,15.96c4.28,19,7.37,38.2,8.78,57.63
		c1,13.75,1.07,27.5-0.35,41.24c-0.97,9.34-2.54,18.56-5.13,27.59c-3.27,11.38-7.96,22.1-15.15,31.58
		c-13.81,18.19-32.38,27.26-55.03,28.21c-8.1,0.34-16.1-0.71-24.01-2.42c-12.94-2.79-25.18-7.55-37.01-13.42
		c-17.5-8.69-33.63-19.51-49.01-31.49c-12.28-9.56-23.94-19.83-35.17-30.59c-1-0.96-1.89-2.09-3.39-2.79
		c-1.09,1.04-2.12,2.01-3.13,2.98c-12.27,11.74-25.04,22.9-38.57,33.18c-14.67,11.14-30.02,21.23-46.61,29.31
		c-13.82,6.73-28.13,11.97-43.42,14.2c-9.34,1.36-18.66,1.58-27.97-0.21c-15.67-3-28.94-10.27-39.57-22.23
		c-7.35-8.27-12.54-17.81-16.34-28.15c-5.32-14.5-7.74-29.57-8.49-44.92c-0.69-14.01-0.24-27.99,1.24-41.94
		c1.04-9.8,2.43-19.53,4.16-29.23c1.96-10.98,4.36-21.86,7.06-32.68c0.19-0.75,0.15-1.56,0.22-2.36c-1.01-0.32-1.79-0.59-2.59-0.82
		c-19.73-5.67-39.1-12.35-57.87-20.71c-15.85-7.07-31.1-15.21-45.24-25.33c-9.3-6.65-17.96-14.01-25.49-22.64
		c-11.32-12.97-19.37-27.5-21.27-44.93C217.05,608.26,216.8,607.36,215.91,606.78z M514.43,717.1c0.76,0.11,1.34,0.22,1.92,0.27
		c4.97,0.37,9.93,0.87,14.91,1.05c14.94,0.55,29.88,1.17,44.83,1.39c22.2,0.32,44.37-0.69,66.52-2.08c1.88-0.12,3.77-0.21,5.58-0.71
		c0.48-0.66,0.91-1.22,1.31-1.81c23.98-35.29,45.28-72.12,63.94-110.49c0.26-0.53,0.51-1.07,0.77-1.6c0.4-0.8,0.41-1.59,0.01-2.39
		c-0.26-0.53-0.51-1.07-0.77-1.61c-18.62-38.39-39.92-75.22-63.96-110.47c-0.52-0.77-1.14-1.47-1.7-2.18
		c-44.47-3.3-88.8-3.29-133.23,0.02c-25.25,36.79-47.49,75.22-66.75,115.41C467.19,642.11,489.37,680.46,514.43,717.1z
		 M748.61,601.93c4.45,10.28,8.98,20.34,13.17,30.53c4.15,10.09,8.1,20.26,11.86,30.5c3.79,10.33,7.24,20.78,10.89,31.36
		c1.68-0.46,3.27-0.87,4.84-1.33c19.71-5.75,39.02-12.59,57.62-21.33c13.02-6.12,25.54-13.08,37.08-21.71
		c7.15-5.35,13.78-11.26,19.39-18.25c3.81-4.74,7.02-9.85,9.21-15.55c3.22-8.37,3.62-16.87,1.03-25.46
		c-2.19-7.27-6.12-13.59-10.92-19.41c-5.24-6.35-11.33-11.81-17.87-16.78c-10.9-8.29-22.74-15.04-35.04-20.98
		c-20.23-9.78-41.35-17.17-62.9-23.42c-0.78-0.23-1.59-0.31-2.51-0.49c-3.64,10.52-7.1,20.97-10.88,31.3
		c-3.75,10.24-7.68,20.42-11.82,30.51C757.59,581.61,753.06,591.66,748.61,601.93z M602.32,823.93c1.21,0.99,2.16,1.71,3.04,2.5
		c5.88,5.35,11.65,10.82,17.63,16.05c13.33,11.64,27.36,22.38,42.45,31.67c11.13,6.85,22.68,12.85,35.11,17.04
		c9.74,3.28,19.68,5.35,30.02,4.71c11.05-0.68,20.39-4.97,27.72-13.38c2.59-2.96,4.75-6.22,6.59-9.68
		c2.07-3.88,3.71-7.94,5.05-12.13c3.75-11.74,5.16-23.85,5.58-36.1c0.54-15.7-0.78-31.3-2.99-46.82
		c-2.02-14.21-4.87-28.27-8.33-42.2c-0.34-1.36-0.54-2.78-1.41-4.35c-16.05,3.53-32.21,6.6-48.47,9.13
		c-16.4,2.55-32.88,4.5-49.51,6.05C645.81,773.46,625.14,799.12,602.32,823.93z M378.16,509.53c-1.11,0.24-1.82,0.34-2.5,0.54
		c-19.49,5.65-38.63,12.24-57.1,20.68c-13.51,6.18-26.53,13.22-38.56,21.99c-7.02,5.12-13.56,10.77-19.23,17.38
		c-4.12,4.8-7.63,9.98-10.14,15.81c-4.62,10.72-4.59,21.41,0.08,32.1c2.35,5.37,5.55,10.2,9.28,14.69
		c5.18,6.24,11.19,11.61,17.62,16.51c10.71,8.15,22.31,14.83,34.39,20.69c20.64,10.01,42.17,17.67,64.22,23.9
		c0.55,0.16,1.11,0.29,1.9,0.49c0.49-1.3,0.97-2.48,1.38-3.69c3.51-10.2,6.86-20.46,10.54-30.6c6.7-18.51,14.29-36.67,22.49-54.57
		c1.9-4.14,1.88-2.88-0.05-7.23c-2.75-6.17-5.55-12.32-8.21-18.54c-9.29-21.71-17.55-43.79-24.7-66.3
		C379.16,512.16,378.68,510.96,378.16,509.53z M560.29,379.85c-1.11-0.88-2.01-1.48-2.77-2.22c-10.89-10.43-22.19-20.4-34.11-29.65
		c-12.3-9.54-25.12-18.3-38.9-25.58c-9.78-5.16-19.88-9.55-30.65-12.2c-8.46-2.08-16.99-3.23-25.73-1.89
		c-8.36,1.28-15.61,4.69-21.64,10.64c-4.02,3.96-7.11,8.57-9.61,13.6c-3.5,7.06-5.69,14.56-7.2,22.27
		c-1.85,9.46-2.6,19.04-2.69,28.66c-0.14,14.38,1.14,28.67,3.19,42.91c2.13,14.81,5.15,29.43,8.77,43.94
		c0.16,0.65,0.49,1.27,0.8,2.03c1.08-0.15,2.02-0.21,2.92-0.41c12.16-2.68,24.38-5,36.67-7.05c18.02-3.02,36.12-5.44,54.32-7.08
		c1.41-0.13,2.8-0.38,4.19-0.57C516.85,430.23,537.47,404.66,560.29,379.85z M762.99,472.31c0.27-0.82,0.53-1.47,0.69-2.14
		c1.51-6.47,3.09-12.92,4.47-19.41c3.07-14.52,5.34-29.17,6.58-43.96c1.08-12.91,1.36-25.84,0.1-38.75
		c-0.83-8.52-2.27-16.92-4.91-25.09c-2.24-6.93-5.23-13.49-9.68-19.31c-5.27-6.9-11.94-11.81-20.36-14.18
		c-7.93-2.23-15.94-2.09-23.99-0.72c-7.63,1.3-14.97,3.59-22.14,6.48c-12.59,5.08-24.34,11.73-35.63,19.22
		c-19.55,12.96-37.35,28.08-54.2,44.34c-0.4,0.39-0.74,0.85-1.25,1.45c22.43,24.41,43.12,50.06,62.13,77.09
		c3.78,0.41,7.43,0.84,11.08,1.2c12.99,1.28,25.91,3,38.81,4.98c15.24,2.34,30.39,5.11,45.44,8.47
		C761.02,472.17,761.96,472.19,762.99,472.31z M399.72,731.29c-0.34,0.97-0.66,1.71-0.86,2.48c-5.97,23.99-10.35,48.22-11.6,72.97
		c-0.65,12.85-0.24,25.62,1.72,38.33c1.22,7.88,3.2,15.56,6.37,22.9c2.47,5.7,5.6,10.99,9.85,15.56
		c5.24,5.62,11.54,9.37,19.06,11.13c7.66,1.8,15.3,1.51,22.96,0.18c7.51-1.3,14.73-3.6,21.78-6.45
		c13.03-5.27,25.16-12.21,36.82-20.01c18.89-12.65,36.16-27.3,52.52-43.04c0.51-0.49,0.95-1.03,1.6-1.74
		c-11.19-12.22-21.96-24.69-32.31-37.51c-10.42-12.92-20.38-26.19-29.87-39.6c-6.91-0.75-13.51-1.43-20.11-2.2
		c-6.48-0.76-12.96-1.52-19.42-2.44c-6.57-0.93-13.13-2-19.67-3.11c-6.43-1.09-12.85-2.25-19.25-3.47
		C412.83,734.01,406.36,732.64,399.72,731.29z M581.25,801.5c0.64-0.59,1.18-1.01,1.64-1.51c14.49-15.85,28.26-32.31,41.2-49.45
		c0.19-0.25,0.21-0.61,0.29-0.86c-0.15-0.19-0.22-0.35-0.28-0.35c-28.09,0.97-56.19,1.28-84.28-0.1c-0.47-0.02-0.94,0.04-1.41,0.09
		c-0.08,0.01-0.14,0.15-0.31,0.33c0.08,0.24,0.11,0.61,0.29,0.85c12.79,16.96,26.42,33.22,40.72,48.93
		C579.74,800.12,580.45,800.73,581.25,801.5z M431.24,638.4c-0.69,1.63-1.35,3.15-1.98,4.68c-7.66,18.51-14.57,37.29-20.57,56.41
		c-0.23,0.73-0.29,1.52-0.45,2.42c1.61,0.38,2.98,0.72,4.36,1.02c12.27,2.66,24.62,4.95,37.02,6.89c7.84,1.23,15.72,2.2,23.59,3.26
		c0.53,0.07,1.17,0.38,1.68-0.61c-15.5-23.82-29.5-48.67-42.93-73.85C431.9,638.55,431.73,638.55,431.24,638.4z M687.97,490.74
		c-0.06,0.38-0.13,0.53-0.08,0.61c15.03,23.91,29.35,48.23,42.32,73.32c0.1,0.2,0.29,0.37,0.47,0.52c0.08,0.07,0.22,0.09,0.33,0.13
		c3.97-6.16,22.7-57.3,23.12-63.13C748.13,499.62,696.21,490.61,687.97,490.74z M474.56,490.55c-1.37,0.11-2.78,0.17-4.17,0.36
		c-2.59,0.34-5.16,0.77-7.74,1.12c-17.63,2.41-35.1,5.67-52.49,9.43c-0.66,0.14-1.27,0.45-2.05,0.74c0.27,1,0.44,1.79,0.7,2.55
		c3.12,9.2,6.08,18.47,9.44,27.59c3.81,10.34,7.98,20.56,12.02,30.81c0.32,0.8,0.49,1.78,1.67,2.39
		c13.09-25.36,27.29-49.86,42.56-73.74c0.12-0.18,0.14-0.43,0.17-0.66C474.69,491.03,474.63,490.91,474.56,490.55z M537.97,454.59
		c28.9-1.42,57.34-1.2,85.77-0.18c0.17,0.01,0.36-0.22,0.53-0.34c-1.56-3.17-8.42-12.01-20.61-26.55
		c-13.47-16.07-19.87-23.17-22.51-24.96C574.32,408.51,541.62,447.76,537.97,454.59z M754.4,701.69c-0.84-4.35-2.43-8.3-3.76-12.32
		c-6.42-19.42-16.86-46.46-19.6-50.95c-0.11,0.05-0.27,0.08-0.31,0.16c-13.37,24.96-27.26,49.63-42.65,73.42
		c-0.12,0.19-0.16,0.44-0.21,0.66c-0.02,0.11,0.04,0.23,0.06,0.35C693.3,713.56,742.85,705.06,754.4,701.69z"/>
	<path class="st0" d="M581.17,667.03c-37.44-0.3-65.16-30.87-64.85-65.5c0.32-35.79,29.45-64.73,65.46-64.49
		c36.75,0.25,64.74,30.58,64.5,65.46C646.05,636.51,618.61,666.88,581.17,667.03z"/>
</g>
</svg>
